/* XPM */
static char *c34e6bf6f9cf467fada2a028e2ddd989[] = {
/* columns rows colors chars-per-pixel */
"110 60 256 2 ",
"   c #020202",
".  c #090605",
"X  c #060903",
"o  c #0A0A07",
"O  c #070608",
"+  c #070A09",
"@  c #0B0C0B",
"#  c #0C070A",
"$  c #160608",
"%  c #110D0B",
"&  c #0E100B",
"*  c #1C1406",
"=  c #12130C",
"-  c #1A140C",
";  c #1A1B0E",
":  c #0E0F10",
">  c #0E1111",
",  c #141414",
"<  c #1B1513",
"1  c #161810",
"2  c #1B1A15",
"3  c #16181A",
"4  c #1C1B1B",
"5  c #18171A",
"6  c #240505",
"7  c #220809",
"8  c #3F080D",
"9  c #221607",
"0  c #221A0C",
"q  c #271A0C",
"w  c #241C14",
"e  c #221E1D",
"r  c #291E19",
"t  c #2A1A12",
"y  c #3C1111",
"u  c #1D2315",
"i  c #1E201D",
"p  c #1C2A17",
"a  c #3A2F0F",
"s  c #242313",
"d  c #2C2415",
"f  c #252815",
"g  c #2D2D17",
"h  c #23241A",
"j  c #2B241C",
"k  c #232B1A",
"l  c #2B2A1C",
"z  c #332415",
"x  c #332914",
"c  c #392B16",
"v  c #312619",
"b  c #332A1B",
"n  c #382E1B",
"m  c #2B321B",
"M  c #343016",
"N  c #383012",
"B  c #34341C",
"V  c #3C331D",
"C  c #3D391E",
"Z  c #1E1E20",
"A  c #1F2021",
"S  c #242424",
"D  c #292625",
"F  c #262924",
"G  c #2B2B25",
"H  c #252629",
"J  c #282528",
"K  c #26292A",
"L  c #2C2B2B",
"P  c #332D22",
"I  c #312E2C",
"U  c #2F3126",
"Y  c #2F312D",
"T  c #323524",
"R  c #3D3523",
"E  c #353A25",
"W  c #3D3E26",
"Q  c #33332C",
"!  c #3C352E",
"~  c #37392D",
"^  c #3A3C2B",
"/  c #2C2E32",
"(  c #302E31",
")  c #2E3031",
"_  c #333333",
"`  c #3B3434",
"'  c #3C3B34",
"]  c #363538",
"[  c #3B3738",
"{  c #373939",
"}  c #3B3B3B",
"|  c #363A32",
" . c #450A0C",
".. c #570000",
"X. c #610000",
"o. c #6C0406",
"O. c #610B0A",
"+. c #621110",
"@. c #46351F",
"#. c #4A331A",
"$. c #423A1F",
"%. c #5C3512",
"&. c #533618",
"*. c #5E3F1A",
"=. c #653E17",
"-. c #482D2F",
";. c #522427",
":. c #433522",
">. c #483521",
",. c #463D21",
"<. c #4C3C23",
"1. c #40372E",
"2. c #41392F",
"3. c #4E3C29",
"4. c #4A372B",
"5. c #513725",
"6. c #523B22",
"7. c #553D2A",
"8. c #423630",
"9. c #4A3030",
"0. c #433C35",
"q. c #433E3D",
"w. c #5F3135",
"e. c #3C422C",
"r. c #3C4122",
"t. c #3E4233",
"y. c #3F403D",
"u. c #7E460D",
"i. c #68451E",
"p. c #65451D",
"a. c #714013",
"s. c #7A4710",
"d. c #744B1F",
"f. c #7A4B17",
"g. c #454123",
"h. c #4B4324",
"j. c #414926",
"k. c #45462B",
"l. c #4A422B",
"z. c #434A2B",
"x. c #4A4B2C",
"c. c #534325",
"v. c #5B4726",
"b. c #54452B",
"n. c #5B452C",
"m. c #55492C",
"M. c #5C4A2C",
"N. c #5E502D",
"B. c #414333",
"V. c #4E4036",
"C. c #464B32",
"Z. c #4A4D33",
"A. c #43423C",
"S. c #4A433B",
"D. c #46493C",
"F. c #494D3B",
"G. c #564431",
"H. c #5C4332",
"J. c #574831",
"K. c #5C4A34",
"L. c #5E4B3A",
"P. c #465133",
"I. c #4C5135",
"U. c #4C513C",
"Y. c #505439",
"T. c #525A3D",
"R. c #5F5435",
"E. c #604926",
"W. c #644D2D",
"Q. c #734D24",
"!. c #67512E",
"~. c #6A512D",
"^. c #634D32",
"/. c #665132",
"(. c #6B5534",
"). c #6C5837",
"_. c #64553D",
"`. c #695239",
"'. c #6C593E",
"]. c #745B37",
"[. c #7C5B35",
"{. c #745A3A",
"}. c #7B5D3B",
"|. c #74573A",
" X c #7C6037",
".X c #7D623B",
"XX c #3F3F42",
"oX c #403E42",
"OX c #444343",
"+X c #4D4541",
"@X c #4E4942",
"#X c #464748",
"$X c #494649",
"%X c #4B4B4B",
"&X c #534D44",
"*X c #514E4C",
"=X c #584F4A",
"-X c #5B4F42",
";X c #4F5344",
":X c #525242",
">X c #545C42",
",X c #53514D",
"<X c #5F5549",
"1X c #4F4E50",
"2X c #544E51",
"3X c #545453",
"4X c #585655",
"5X c #5C5A55",
"6X c #565658",
"7X c #5B5A5A",
"8X c #675840",
"9X c #655D4E",
"0X c #625E5F",
"qX c #655C51",
"wX c #7D6242",
"eX c #686459",
"rX c #646659",
"tX c #7F6952",
"yX c #736450",
"uX c #605F60",
"iX c #636262",
"pX c #67686D",
"aX c #6D6B6B",
"sX c #8F4600",
"dX c #87460B",
"fX c #894609",
"gX c #844A0F",
"hX c #924503",
"jX c #984B07",
"kX c #804C17",
"lX c #805E3C",
"zX c #84643D",
"xX c #8A673F",
"cX c #856441",
"vX c #8A6641",
"bX c #8B6B46",
"nX c #846A49",
"mX c #8B6C4A",
"MX c #926F4A",
"NX c #926C45",
"BX c #8E714B",
"VX c #93724D",
"CX c #9A744A",
"ZX c #896E51",
"AX c #8F7456",
"SX c #8F7857",
"DX c #997650",
"FX c #987859",
"GX c #A1784B",
"HX c #A17C54",
"JX c #A67E58",
"KX c #AD8962",
"LX c #B68C66",
"PX c #B69472",
"IX c #BBA084",
"UX c None",
/* pixels */
"UXUXUXUXUXUXUXUXUXUXUXUXUXUXUXUXUXUXUXUXUXUXUXUXUXUXUXUXUXUXUXUXUXUXUXUXUXUXUXUXUXUXUXUXUXUXUXUXUXUXUXUXUXUXUXUXUXUXUXUXUXUXUXUXUXUXUXUXUXUXUXUXUXUXUXUXUXUXUXUXUXUXUXUXUXUXUXUXUXUXUXUXUXUXUXUXUXUXUXUXUXUXUXUXUXUXUXUXUXUX",
"UXUXUXUXUXUXUXUXUXUXUXUXUXUXUXUXUXUXUXUXUXUXUXUXUXUXUXUXUXUXUXUXUXUXUXUXUXUXUXUXUXUXUXUXUXUXUXUXUXUXUXUXUXUXUXUXUXUXUXUXUXUXUXUXUXUXUXUXUXUXUXUXUXUXUXUXUXUXUXUXUXUXUXUXUXUXUXUXUXUXUXUXUXUXUXUXUXUXUXUXUXUXUXUXUXUXUXUXUXUX",
"UXUXUXUXUXUXUXUXUXUXUXUXUXUXUXUXUXUXUXUXUXUXUXUXUXUXUXUXUXUXUXUXUXUXUXUXUXUXUXUXUXUXUXUXUXUXUXUXUXUXUXUXUXUXUXUXUXUXUXUXUXUXUXUXUXUXUXUXUXUXUXUXUXUXUXUXUXUXUXUXUXUXUXUXUXUXUXUXUXUXUXUXUXUXUXUXUXUXUXUXUXUXUXUXUXUXUXUXUXUX",
"UXUXUXUXUXUXUXUXUXUXUXUXUXUXUXUXUXUXUXUXUXUXUXUXUXUXUXUXUXUXUXUXUXUXUXUXUXUXUXUXUXUXUXUXUXUXUXUXUXUXUXUXUXUXUXUXUXUXUXUXUXUXUXUXUXUXUXUXUXUXUXUXUXUXUXUXUXUXUXUXUXUXUXUXUXUXUXUXUXUXUXUXUXUXUXUXUXUXUXUXUXUXUXUXUXUXUXUXUXUX",
"UXUXUXUXUXUXUXUXUXUXUXUXUXUXUXUXUXUXUXUXUXUXUXUXUXUXUXUXUXUXUXUXUXUXUXUXUXUXUXUXUXUXUXUXUXUXUXUXUXUXUXUXUXUXUXUXUXUXUXUXUXUXUXUXUXUXUXUXUXUXUXUXUXUXUXUXUXUXUXUXUXUXUXUXUXUXUXUXUXUXUXUXUXUXUXUXUXUXUXUXUXUXUXUXUXUXUXUXUXUX",
"UXUXUXUXUXUXUXUXUXUXUXUXUXUXUXUXUXUXUXUXUXUXUXUXUXUXUXUXUXUXUXUXUXUXUXUXUXUXUXUXUXUXUXUXUXUXUXUXUXUXUXUXUXUXUXUXUXUXUXUXUXUXUXUXUXUXUXUXUXUXUXUXUXUXUXUXUXUXUXUXUXUXUXUXUXUXUXUXUXUXUXUXUXUXUXUXUXUXUXUXUXUXUXUXUXUXUXUXUXUX",
"UXUXUXUXUXUXUXUXUXUXUXUXUXUXUXUXUXUXUXUXUXUXUXUXUXUXUXUXUXUXUXUXUXUXUXUXUXUXUXUXUXUXUXUXUXUXUXUXUXUXUXUXUXUXUXUXUXUXUXUXUXUXUXUXUXUXUXUXUXUXUXUXUXUXUXUXUXUXUXUXUXUXUXUXUXUXUXUXUXUXUXUXUXUXUXUXUXUXUXUXUXUXUXUXUXUXUXUXUXUX",
"UXUXUXUXUXUXUXUXUXUXUXUXUXUXUXUXUXUXUXUXUXUXUXUXUXUXUXUXUXUXUXUXUXUXUXUXUXUXUXUXUXUXUXUXUXUXUXUXUXUXUXUXUXUXUXUXUXUXUXUXUXUXUXUXUXUXUXUXUXUXUXUXUXUXUXUXUXUXUXUXUXUXUXUXUXUXUXUXUXUXUXUXUXUXUXUXUXUXUXUXUXUXUXUXUXUXUXUXUXUX",
"UXUXUXUXUXUXUXUXUXUXUXUXUXUXUXUXUXUXUXUXUXUXUXUXUXUXUXUXUXUXUXUXUXUXUXUXUXUXUXUXUXUXUXUXUXUXUXUXUXUXUXUXUXUXUXUXUXUXUXUXUXUXUXUXUXUXUXUXUXUXUXUXUXUXUXUXUXUXUXUXUXUXUXUXUXUXUXUXUXUXUXUXUXUXUXUXUXUXUXUXUXUXUXUXUXUXUXUXUXUX",
"UXUXUXUXUXUXUXUXUXUXUXUXUXUXUXUXUXUXUXUXUXUXUXUXUXUXUXUXUXUXUXUXUXUXUXUXUXUXUXUXUXUXUXUXUXq.3X5X7X7X4X1X%X[ UXUXUXUXUXUXUXUXUXUXUXUXUXUXUXUXUXUXUXUXUXUXUXUXUXUXUXUXUXUXUXUXUXUXUXUXUXUXUXUXUXUXUXUXUXUXUXUXUXUXUXUXUXUXUXUX",
"UXUXUXUXUXUXUXUXUXUXUXUXUXUXUXUXUXUXUXUXUXUXUXUXUXUXUXUXUXUXUXUXUXUXUXUXUXUXUXUXUXUXUXUXUX[ oXOXoXOXXX[ [ _ D UXUXUXUXUXUXUXUXUXUXUXUXUXUXUXUXUXUXUXUXUXUXUXUXUXUXUXUXUXUXUXUXUXUXUXUXUXUXUXUXUXUXUXUXUXUXUXUXUXUXUXUXUXUXUX",
"UXUXUXUXUXUXUXUXUXUXUXUXUXUXUXUXUXUXUXUXUXUXUXUXUXUXUXUXUXUXUXUXUXUXUXUXUXUXUXUXUXUXy.OX} L S 4 4 S S A e S K F I UXUXUXUXUXUXUXUXUXUXUXUXUXUXUXUXUXUXUXUXUXUXUXUXUXUXUXUXUXUXUXUXUXUXUXUXUXUXUXUXUXUXUXUXUXUXUXUXUXUXUXUXUX",
"UXUXUXUXUXUXUXUXUXUXUXUXUXUXUXUXUXUXUXUXUXUXUXUXUXUXUXUXUXUXUXUXUXUXUXUXUXUXUXUXUX} _ ) S 4 4 4 4 4 4 4 4 4 4 4 S L UXUXUXUXUXUXUXUXUXUXUXUXUXUXUXUXUXUXUXUXUXUXUXUXUXUXUXUXUXUXUXUXUXUXUXUXUXUXUXUXUXUXUXUXUXUXUXUXUXUXUXUX",
"UXUXUXUXUXUXUXUXUXUXUXUXUXUXUXUXUXUXUXUXUXUXUXUXUXUXUXUXUXUXUXUXUXUXUXUXUXUXUXU } [ L S h 3 5 3 4 3 2 3 4 , 4 , S K _ UXUXUXUXUXUXUXUXUXUXUXUXUXUXUXUXUXUXUXUXUXUXUXUXUXUXUXUXUXUXUXUXUXUXUXUXUXUXUXUXUXUXUXUXUXUXUXUXUXUXUX",
"UXUXUXUXUXUXUXUXUXUXUXUXUXUXUXUXUXUXUXUXUXUXUXUXUXUXUXUXUXUXUXUXUXUXUXUXUXUXUXL / K 4 @                           o 4 G UXUXUXUXUXUXUXUXUXUXUXUXUXUXUXUXUXUXUXUXUXUXUXUXUXUXUXUXUXUXUXUXUXUXUXUXUXUXUXUXUXUXUXUXUXUXUXUXUXUX",
"UXUXUXUXUXUXUXUXUXUXUXUXUXUXUXUXUXUXUXUXUXUXUXUXUXUXUXUX$X2X$X} _ { ) S _ ) L S , , e , @ : : : : : : : : : : : @ : 4 S UXUXUXUXUXUXUXUXUXUXUXUXUXUXUXUXUXUXUXUXUXUXUXUXUXUXUXUXUXUXUXUXUXUXUXUXUXUXUXUXUXUXUXUXUXUXUXUXUXUX",
"UXUXUXUXUXUXUXUXUXUXUXUXUXUXUXUXUXUXUXUXUXUXUXUXUX3X3XOX} q.S 4 S S S S L ) D 4   O G D L L G U G L I G L L P L L S 5 S UXUXUXUXUXUXUXUXUXUXUXUXUXUXUXUXUXUXUXUXUXUXUXUXUXUXUXUXUXUXUXUXUXUXUXUXUXUXUXUXUXUXUXUXUXUXUXUXUXUX",
"UXUXUXUXUXUXUXUXUXUXUXUXUXUXUXUXUXUXUXUXUXUXUXUX#X} L @ , L _ L S J K D k h 4 4 L OX0XUXUXUXUXUXUXUXUXUXUXUXUXUXD S S e UXUXUXUXUXUXUXUXUXUXUXUXUXUXUXUXUXUXUXUXUXUXUXUXUXUXUXUXUXUXUXUXUXUXUXUXUXUXUXUXUXUXUXUXUXUXUXUXUXUX",
"UXUXUXUXUXUXUXUXUXUXUXUXUXUXUXUXUXUXUXUX,X4X4XOXOX_ 4   O K _ L S H K S p p , 5 ` 3XaXUXUXUXUXUXUXUXUXUXUXUXUXUXl D L e UXUXUXUXUXUXUXUXUXUXUXUXUXUXUXUXUXUXUXUXUXUXUXUXUXUXUXUXUXUXUXUXUXUXUXUXUXUXUXUXUXUXUXUXUXUXUXUXUXUX",
"UXUXUXUXUXUXUXUXUXUXUXUXUXUXUXUXUXUXUXA.Q ) _ , @ & @ , S _ e S K S F I 4 & .   ) OXOX0XUXUXUXUXUXUXUXUXUXUXUXUX{ _ D 4 UXUXUXUXUXUXUXUXUXUXUXUXUXUXUXUXUXUXUXUXUXUXUXUXUXUXUXUXUXUXUXUXUXUXUXUXUXUXUXUXUXUXUXUXUXUXUXUXUXUX",
"UXUXUXUXUXUXUXUXUXUXUXUXUXUXUXUXUX#X} _ H 4 ,         K ] _ 4 5 S K ( [ ,       L } [ 1X4XUXUXUXUXUXUXUXUXUXUXUXS.} K 4 < UXUXUXUXUXUXUXUXUXUXUXUXUXUXUXUXUXUXUXUXUXUXUXUXUXUXUXUXUXUXUXUXUXUXUXUXUXUXUXUXUXUXUXUXUXUXUXUXUX",
"UXUXUXUXUXUXUXUXUXUXUXUXUXUXUXUX' S S K _ 4           [ A.L 4 , 4 L { q.@     : L { } { OX5XUXUXUXUXUXUXUXUXUXUXS.} S e < UXUXUXUXUXUXUXUXUXUXUXUXUXUXUXUXUXUXUXUXUXUXUXUXUXUXUXUXUXUXUXUXUXUXUXUXUXUXUXUXUXUXUXUXUXUXUXUXUX",
"UXUXUXUXUXUXUXUXUXUXUXUXUXUXUX` _ K e 3 e < 7 7 $     _ [ _ K 4 , K [ XX@     @ S _ { } #X4X,X4XUXUXUXUXUXUXUXUXA.} S Z < UXUXUXUXUXUXUXUXUXUXUXUXUXUXUXUXUXUXUXUXUXUXUXUXUXUXUXUXUXUXUXUXUXUXUXUXUXUXUXUXUXUXUXUXUXUXUXUXUX",
"UXUXUXUXUXUXUXUXUXUXUXUXUXUXB._ S _ ,     7 O.O.y .   4 _ OX} 4   S } y.:       4 F L #X1X1X0XiXuX7XUXUXUXUXUXUXOX[ H e 2 UXUXUXUXUXUXUXUXUXUXUXUXUXUXUXUXUXUXUXUXUXUXUXUXUXUXUXUXUXUXUXUXUXUXUXUXUXUXUXUXUXUXUXUXUXUXUXUXUX",
"UXUXUXUXUXUXUXUXUXUXUXUXUXUX} ] S o : S } ;.X.o. .% : O 3 ) K S 4 _ [ ] @       ] %X1X7X7X3X7X%XOXOXUXUXUXUXUXUXOX] S Z 4 UXUXUXUXUXUXUXUXUXUXUXUXUXUXUXUXUXUXUXUXUXUXUXUXUXUXUXUXUXUXUXUXUXUXUXUXUXUXUXUXUXUXUXUXUXUXUXUXUX",
"UXUXUXUXUXUXUXUXUXUXUXUXUXUXA.{ S   @ / 3Xw...o.8 : >   @ L S S L [ ] ) @       } 7X7XiXuX7X3X%X[ } UXUXUXUXUXUXOX] S 4 , UXUXUXUXUXUXUXUXUXUXUXUXUXUXUXUXUXUXUXUXUXUXUXUXUXUXUXUXUXUXUXUXUXUXUXUXUXUXUXUXUXUXUXUXUXUXUXUXUX",
"UXUXUXUXUXUXUXUXUXUXUXUXUXUX/ 4 . , S { #X+X-.9.` [ { :   @ [ K   uXiX] :       #X0X4X%X#X#XOXOXOX) UXUXUXUXUXUXOX{ S 4 , UXUXUXUXUXUXUXUXUXUXUXUXUXUXUXUXUXUXUXUXUXUXUXUXUXUXUXUXUXUXUXUXUXUXUXUXUXUXUXUXUXUXUXUXUXUXUXUXUX",
"UXUXUXUXUXUXUXUXUXUXUXUXUX] K 3 O K } #X#X&XqXeXeX9X<XI %   } L X %X3X{ @       { OX_ _ _ { _ _ { F UXUXUXUXUXUXOX] S 4 A UXUXUXUXUXUXUXUXUXUXUXUXUXUXUXUXUXUXUXUXUXUXUXUXUXUXUXUXUXUXUXUXUXUXUXUXUXUXUXUXUXUXUXUXUXUXUXUXUX",
"UXUXUXUXUXUXUXUXUXUXUXUXUXS S A S ] $X6XXXyXPXIXIXHXwX8XP   K ( H     L @       + .   , D L S S i S UXUXUXUXUXUXUX} S 3 S } UXUXUXUXUXq.%XUXUX} UXUXUX} } UXUXUXUXUXA.L UXUX{ I A.UXUXUXI 3XUXUXUXUXUXUXUXUXUXUXUXUXUXUXUXUX",
"UXUXUXUXUXUXUXUXUXUXUXUXUXS U P P 2.+X2X0._.VXAXSX}.W.m.h   L _ L , , L @   o w :.b < L L 4 D U L U UXUXUXUXUXUXUX! S , 4 t.A.A.A.UXUXK D.UXUXB.' y.UXy.{ ' A.UXUX_ L I UXG A.S } B.UXUX| } B.UX! 2.UXUXUXUXUXUXUXUXUXUXUXUX",
"UXUXUXUXUXUXUXUXUXUXUXS S S 3.J.J.H.H.7.5.>.#.a c x q g -   S } #XOX[ S   O < AXKXnX'.5X_   E I.A.U.^ , E Y.>Xj.C j 4   & P.m p n R j   E -   I.f , C.~ ~ Z.U h I.= X ^   l Z.> E z.> T C.= T Z.0 ' @XUXUXUXUXUXUXUXUXUXUXUX",
"UXUXUXUXUXUXUXUXUXUXUXW l.J.N.`.{.|.}.cXlXlX}.}.}.}.}.}.|.`.I _ y.] / H   # b (.CXzX!.&XL   2 D S 3 & X 2 D h = = @ o   X 1 & o % % @   : o   ; o o 1 & & 1 = & 1 X X &   & 1 o & 1 o & = . & = . 4 t.B.UXUXUXUXUXUXUXUXUXUX",
"UXUXUXUXUXUXUXUXUXUXUXb.N.{.).{.wXvXNXDXCXCXCXCXCXCXCXCXGXHX! / } _ L L   : R v.bXxX!.@XL   , 3 3       , 5 O         .                                                                           > W j.UXUXUXUXUXUXUXUXUXUX",
"UXUXUXUXUXUXUXUXUXUXUXl.M.(.}.lXcXzXzXvXcXbXmXmXbXcX.XzXvXMX! / } ) 4 @ O   O <.HXBXv.@XK   O @ #       O @ O                                           O                       X                 O s R } UXUXUXUXUXUXUXUXUX",
"UXUXUXUXUXUXUXUXUXUXUXG.W.(.].}.wX|.|.|.(.`.^.L.^.|..X|.zXMX! / } ) ,       . <.JXMXc.@XK             O       O         .                       O               O       O       O                   ; W { } UXUXUXUXUXUXUXUX",
"UXUXUXUXUXUXUXUXUXUXUXG.^.(.(.~.!./.~.!.h.v % . * W.nX.XxXMX` / y.L h ,   % 4.W.MXzXc.@X/                             O         O           O                 @ h @                           .     d Z.I L UXUXUXUXUXUXUXUX",
"UXUXUXUXUXUXUXUXUXUXUXG.n./././.(./.(.~.<.l , : w K.wX{.zXVX1./ XXL 4 & . t 6.W.BXzXv.@XK                 X     O                 X           O               O , : O         O               O     s k._ UXUXUXUXUXUXUXUXUX",
"UXUXUXUXUXUXUXUXUXUXUX<.6.5.n./.(.(.).(.z 2 S 2 d n.(.W.[.VX8./ } ( ,   z 7.E.W.bXvX/.:XK   X                         O                 O                         4 4               .   O           - R UXUXUXUXUXUXUXUXUXUX",
"UXUXUXUXUXUXUXUXUXUXUX3.c.n.7.n.^.K././.c g E e.W m.(.W.}.VX8./ } ( 4 @ >.K.=XqXBXzX^.@XK             .       O             O     O   O         .       O         @ @             O   O             s k.UXUXUXUXUXUXUXUXUXUX",
"UXUXUXUXUXUXUXUXUXUXUXm.M.H.5.3.7.7.^.(.c B j.T.P.h.(.~..XVX2./ q.L 4 : 3._.3XpXAXzX/.+XH       O                             X                       X       O             O                       f I.' [ UXUXUXUXUXUXUXUX",
"UXUXUXUXUXUXUXUXUXUXUXR ,.l.h.m.n.b.m.m.V $.h.x.g.,.^.!. XMX! / A.L 4 @ m._.%X3XZXvX/.+XK                         O                                           X       X                     O     @ G ~ UXUXUXUXUXUXUXUXUXUX",
"UXUXUXUXUXUXUXUXUXUXUXd n :.h.h.g.h.h.h.$.h.c.c.h.<.m.M. XDX' / XXL Z : J._.S.&XmXvX/.S.S     X     .       O         . # . O @ O # O X           @ O X   O                 X     O   O         O 4 [ _ UXUXUXUXUXUXUXUXUXUX",
"UXUXUXUXUXUXUXUXUXUXUX0 d n ,.V x @.h.x.h.c.M.m.N.`.v.<. XLX2.H ) _ K , g.N.m.'.VXvX/.S.H                             h P w L L , e v F >       > 4 e O   4 @                                 X i _ $XUXUXUXUXUXUXUXUXUXUXUX",
"UXUXUXUXUXUXUXUXUXUXUXv v b :.C g :.>.h.h.c.M.p.d.Q.i.*.[.HXV.L L _ H 3 R l.m.}.MXvX(.S.L X & & o @ & & o @ @   o @   d V d Q U i d d Q : . o   , h 2 & & i > @ X O @ O @ @ o . X & O @ & & @ > K ] UXUXUXUXUXUXUXUXUXUXUXUX",
"UXUXUXUXUXUXUXUXUXUXUXUX! * 9 q d b n x h.m.N.gXhXfXfXfXf.~.nX-Xh / _ _   = R.bXHXvX/.0.A.C.T.>Xz.T.Y.e.B W T   E T   g x.r.P.P.z.M x k.X f ^   g j.* B e.i e.T   , F h L t.B.& m B.h E k.U.,X1X[ ] UXUXUXUXUXUXUXUXUXUXUXUX",
"UXUXUXUXUXUXUXUXUXUXUXUXUXUX&X1.9 r j d C $.h.p.a.s.hXhXs.E.'.(.K.` L _ h 3 2 n..X|.(.0.F ; u u ; T e.^ G l U S t.D.{ ' t.C.;X;XB W 0.:XU | D._ | B.' D.F.) t.D._ L K ~ OX' E K t.F.F Q B.,XOX} OXUXUXUXUXUXUXUXUXUXUXUXUXUX",
"UXUXUXUXUXUXUXUXUXUXUXUXUXUXUXUX- # < v z N $.<.b.d.jXjXkXv./..XVXS./ ) OXS   C ).).|.0.4         > F _ K S L UXUXUXUXoX} UXUXUXs UXUXUX%X#XUXUXUX] UXUX1X} UXUXUX] ( UXUX_ ( OXUXUX/ ] UXUXUXL UXUXUXUXUXUXUXUXUXUXUXUXUXUX",
"UXUXUXUXUXUXUXUXUXUXUXUXUXUXUXUXUX%XQ : v c V @.:.&.%.%.&.@.<.3.b.2 3 L ( 4   - >.h.<.! D -   @ i H _ UXUXUXUXUXUXUXUXUXUXUXUXUXUXUXUXUXUXUXUXUXUXUXUXUXUXUXUXUXUXUXUXUXUXUXUXUXUXUXUXUXUXUXUXUXUXUXUXUXUXUXUXUXUXUXUXUXUXUX",
"UXUXUXUXUXUXUXUXUXUXUXUXUXUXUXUXUXUXUX  l P b v l l S j j G j v j     L K ,     h b d I I G O > y._ ) UXUXUXUXUXUXUXUXUXUXUXUXUXUXUXUXUXUXUXUXUXUXUXUXUXUXUXUXUXUXUXUXUXUXUXUXUXUXUXUXUXUXUXUXUXUXUXUXUXUXUXUXUXUXUXUXUXUXUX",
"UXUXUXUXUXUXUXUXUXUXUXUXUXUXUXUXUXUXUXUXUXUXUXUXUXUXUXUXUXUXUXUXUXUXUXF L 4     UXUXUXUXUXUXUXUXUXUXUXUXUXUXUXUXUXUXUXUXUXUXUXUXUXUXUXUXUXUXUXUXUXUXUXUXUXUXUXUXUXUXUXUXUXUXUXUXUXUXUXUXUXUXUXUXUXUXUXUXUXUXUXUXUXUXUXUXUXUX",
"UXUXUXUXUXUXUXUXUXUXUXUXUXUXUXUXUXUXUXUXUXUXUXUXUXUXUXUXUXUXUXUXUXUXUXK L 4     UXUXUXUXUXUXUXUXUXUXUXUXUXUXUXUXUXUXUXUXUXUXUXUXUXUXUXUXUXUXUXUXUXUXUXUXUXUXUXUXUXUXUXUXUXUXUXUXUXUXUXUXUXUXUXUXUXUXUXUXUXUXUXUXUXUXUXUXUXUX",
"UXUXUXUXUXUXUXUXUXUXUXUXUXUXUXUXUXUXUXUXUXUXUXUXUXUXUXUXUXUXUXUXUXUXUXUXUXUXUXUXUXUXUXUXUXUXUXUXUXUXUXUXUXUXUXUXUXUXUXUXUXUXUXUXUXUXUXUXUXUXUXUXUXUXUXUXUXUXUXUXUXUXUXUXUXUXUXUXUXUXUXUXUXUXUXUXUXUXUXUXUXUXUXUXUXUXUXUXUXUX",
"UXUXUXUXUXUXUXUXUXUXUXUXUXUXUXUXUXUXUXUXUXUXUXUXUXUXUXUXUXUXUXUXUXUXUXUXUXUXUXUXUXUXUXUXUXUXUXUXUXUXUXUXUXUXUXUXUXUXUXUXUXUXUXUXUXUXUXUXUXUXUXUXUXUXUXUXUXUXUXUXUXUXUXUXUXUXUXUXUXUXUXUXUXUXUXUXUXUXUXUXUXUXUXUXUXUXUXUXUXUX",
"UXUXUXUXUXUXUXUXUXUXUXUXUXUXUXUXUXUXUXUXUXUXUXUXUXUXUXUXUXUXUXUXUXUXUXUXUXUXUXUXUXUXUXUXUXUXUXUXUXUXUXUXUXUXUXUXUXUXUXUXUXUXUXUXUXUXUXUXUXUXUXUXUXUXUXUXUXUXUXUXUXUXUXUXUXUXUXUXUXUXUXUXUXUXUXUXUXUXUXUXUXUXUXUXUXUXUXUXUXUX",
"UXUXUXUXUXUXUXUXUXUXUXUXUXUXUXUXUXUXUXUXUXUXUXUXUXUXUXUXUXUXUXUXUXUXUXUXUXUXUXUXUXUXUXUXUXUXUXUXUXUXUXUXUXUXUXUXUXUXUXUXUXUXUXUXUXUXUXUXUXUXUXUXUXUXUXUXUXUXUXUXUXUXUXUXUXUXUXUXUXUXUXUXUXUXUXUXUXUXUXUXUXUXUXUXUXUXUXUXUXUX",
"UXUXUXUXUXUXUXUXUXUXUXUXUXUXUXUXUXUXUXUXUXUXUXUXUXUXUXUXUXUXUXUXUXUXUXUXUXUXUXUXUXUXUXUXUXUXUXUXUXUXUXUXUXUXUXUXUXUXUXUXUXUXUXUXUXUXUXUXUXUXUXUXUXUXUXUXUXUXUXUXUXUXUXUXUXUXUXUXUXUXUXUXUXUXUXUXUXUXUXUXUXUXUXUXUXUXUXUXUXUX",
"UXUXUXUXUXUXUXUXUXUXUXUXUXUXUXUXUXUXUXUXUXUXUXUXUXUXUXUXUXUXUXUXUXUXUXUXUXUXUXUXUXUXUXUXUXUXUXUXUXUXUXUXUXUXUXUXUXUXUXUXUXUXUXUXUXUXUXUXUXUXUXUXUXUXUXUXUXUXUXUXUXUXUXUXUXUXUXUXUXUXUXUXUXUXUXUXUXUXUXUXUXUXUXUXUXUXUXUXUXUX",
"UXUXUXUXUXUXUXUXUXUXUXUXUXUXUXUXUXUXUXUXUXUXUXUXUXUXUXUXUXUXUXUXUXUXUXUXUXUXUXUXUXUXUXUXUXUXUXUXUXUXUXUXUXUXUXUXUXUXUXUXUXUXUXUXUXUXUXUXUXUXUXUXUXUXUXUXUXUXUXUXUXUXUXUXUXUXUXUXUXUXUXUXUXUXUXUXUXUXUXUXUXUXUXUXUXUXUXUXUXUX",
"UXUXUXUXUXUXUXUXUXUXUXUXUXUXUXUXUXUXUXUXUXUXUXUXUXUXUXUXUXUXUXUXUXUXUXUXUXUXUXUXUXUXUXUXUXUXUXUXUXUXUXUXUXUXUXUXUXUXUXUXUXUXUXUXUXUXUXUXUXUXUXUXUXUXUXUXUXUXUXUXUXUXUXUXUXUXUXUXUXUXUXUXUXUXUXUXUXUXUXUXUXUXUXUXUXUXUXUXUXUX",
"UXUXUXUXUXUXUXUXUXUXUXUXUXUXUXUXUXUXUXUXUXUXUXUXUXUXUXUXUXUXUXUXUXUXUXUXUXUXUXUXUXUXUXUXUXUXUXUXUXUXUXUXUXUXUXUXUXUXUXUXUXUXUXUXUXUXUXUXUXUXUXUXUXUXUXUXUXUXUXUXUXUXUXUXUXUXUXUXUXUXUXUXUXUXUXUXUXUXUXUXUXUXUXUXUXUXUXUXUXUX"
};
