/* XPM */
static char *f8176f60d93b4005b0dbd90df167c896[] = {
/* columns rows colors chars-per-pixel */
"110 60 256 2 ",
"   c #040403",
".  c #0A0604",
"X  c #070807",
"o  c #0B0904",
"O  c #04040C",
"+  c #090709",
"@  c #070909",
"#  c #0A0A0A",
"$  c #100A03",
"%  c #100E0F",
"&  c #0E100D",
"*  c #15110C",
"=  c #1A140E",
"-  c #050613",
";  c #070918",
":  c #120F10",
">  c #0F1010",
",  c #131313",
"<  c #191510",
"1  c #171814",
"2  c #191916",
"3  c #161818",
"4  c #1D1D1D",
"5  c #241D14",
"6  c #281F14",
"7  c #201F1C",
"8  c #2B2116",
"9  c #242018",
"0  c #2C2319",
"q  c #352715",
"w  c #352B1D",
"e  c #392D1D",
"r  c #070227",
"t  c #0B0A35",
"y  c #211A25",
"u  c #1F2221",
"i  c #242424",
"p  c #272826",
"a  c #2A2A27",
"s  c #2C2C2C",
"d  c #29202C",
"f  c #302720",
"g  c #342D24",
"h  c #3A2E21",
"j  c #33272D",
"k  c #332D2B",
"l  c #382F28",
"z  c #2F302F",
"x  c #363025",
"c  c #3B3123",
"v  c #34312C",
"b  c #3A342C",
"n  c #3C382F",
"m  c #322C31",
"M  c #332B3A",
"N  c #343333",
"B  c #3B3534",
"V  c #3D3935",
"C  c #3D3C3C",
"Z  c #443B2E",
"A  c #4B3E2A",
"S  c #433824",
"D  c #443C33",
"F  c #493E32",
"G  c #413E3B",
"H  c #763738",
"J  c #763D3C",
"K  c #3E403F",
"L  c #564A2D",
"P  c #4A4336",
"I  c #43413C",
"U  c #4B453C",
"Y  c #4B4739",
"T  c #514634",
"R  c #554D33",
"E  c #514A3E",
"W  c #574A38",
"Q  c #575037",
"!  c #5F5334",
"~  c #5C533B",
"^  c #625436",
"/  c #63563D",
"(  c #675A3B",
")  c #6C5B3E",
"_  c #292541",
"`  c #302A41",
"'  c #3C3440",
"]  c #423F41",
"[  c #3F4140",
"{  c #444443",
"}  c #494644",
"|  c #4D4A44",
" . c #454748",
".. c #4A4749",
"X. c #4B4B4B",
"o. c #534D44",
"O. c #594F41",
"+. c #514E4E",
"@. c #4F504E",
"#. c #5C5444",
"$. c #54524D",
"%. c #5C554B",
"&. c #58544A",
"*. c #504E51",
"=. c #535353",
"-. c #595653",
";. c #555857",
":. c #5B5956",
">. c #565759",
",. c #585658",
"<. c #575858",
"1. c #5B5B5B",
"2. c #605542",
"3. c #6B5A43",
"4. c #635A4B",
"5. c #685C48",
"6. c #615D55",
"7. c #625F5B",
"8. c #7D5959",
"9. c #5E605E",
"0. c #6A6252",
"q. c #64625D",
"w. c #6A645D",
"e. c #6C695F",
"r. c #72695B",
"t. c #7A6E5C",
"y. c #7E705C",
"u. c #575763",
"i. c #5F5F60",
"p. c #615F61",
"a. c #7D5F60",
"s. c #646464",
"d. c #6A6764",
"f. c #676867",
"g. c #6D6A65",
"h. c #666768",
"j. c #696768",
"k. c #6C6C6B",
"l. c #716D66",
"z. c #726E6C",
"x. c #7B6C6C",
"c. c #7A6E60",
"v. c #6E726E",
"b. c #777264",
"n. c #7C7265",
"m. c #74726C",
"M. c #7B746C",
"N. c #7D7B6B",
"B. c #6F6E71",
"V. c #716F70",
"C. c #747474",
"Z. c #797674",
"A. c #767976",
"S. c #7C7973",
"D. c #7A7778",
"F. c #777979",
"G. c #7B7B7B",
"H. c #9C0A08",
"J. c #881618",
"K. c #851616",
"L. c #9F1213",
"P. c #B40708",
"I. c #BE0708",
"U. c #B20708",
"Y. c #962C2C",
"T. c #863232",
"R. c #833D3C",
"E. c #903032",
"W. c #903B38",
"Q. c #A02929",
"!. c #C10605",
"~. c #D00A0C",
"^. c #DC100F",
"/. c #845E5F",
"(. c #8D7356",
"). c #8B745B",
"_. c #9B7B5A",
"`. c #837364",
"'. c #8D7965",
"]. c #847666",
"[. c #937D66",
"{. c #827C72",
"}. c #897E75",
"|. c #817E7C",
" X c #808076",
".X c #84817C",
"XX c #8B857C",
"oX c #92897B",
"OX c #7E7E81",
"+X c #817E81",
"@X c #7F8182",
"#X c #848484",
"$X c #898685",
"%X c #868886",
"&X c #8B8985",
"*X c #868788",
"=X c #898789",
"-X c #878A88",
";X c #8C8B8B",
":X c #938C84",
">X c #998F87",
",X c #938E8A",
"<X c #9A898A",
"1X c #8F908F",
"2X c #959084",
"3X c #95918C",
"4X c #9A938B",
"5X c #989283",
"6X c #8F8F90",
"7X c #908F90",
"8X c #8F9192",
"9X c #939393",
"0X c #9A9695",
"qX c #9C9996",
"wX c #979799",
"eX c #9B9B9B",
"rX c #A69D8E",
"tX c #A09B9D",
"yX c #A5969A",
"uX c #A7A297",
"iX c #A8A097",
"pX c #A6A29B",
"aX c #ACA39C",
"sX c #9F9FA0",
"dX c #A09FA0",
"fX c #A4A4A4",
"gX c #AFA7A1",
"hX c #A7A8A8",
"jX c #ACABAB",
"kX c #A9A6A9",
"lX c #B2ADA5",
"zX c #B7AFA9",
"xX c #B5A5A5",
"cX c #BAB4AC",
"vX c #B5B1AA",
"bX c #AEADB0",
"nX c #B3B3B3",
"mX c #BDBAB3",
"MX c #BCBCBC",
"NX c #C1A8A6",
"BX c #C5B1AF",
"VX c #C1BAB5",
"CX c #C4BEB8",
"ZX c #BEC0BE",
"AX c #C8C3BC",
"SX c #BEBEC1",
"DX c #C2C1C1",
"FX c #C9C8C7",
"GX c #CCCCCC",
"HX c #D7D1C9",
"JX c gray86",
"KX c #E6DED6",
"LX c #E5E0D8",
"PX c #ECECEC",
"IX c #F1F1F1",
"UX c None",
/* pixels */
"UXUXUXUXUXUXUXUXUXUXUXUXUXUXUXUXUXUXUXUXUXUXUXUXUXUXUXUXUXUXUXUXUXUXUXUX$ $ UXUXUXUXUXUXUXUXUXUXUXUXUXUXUXUXUXUXUXUXUXUXUXUXUXUXUXUXUXUXUXUXUXUXUXUXUXUXUXUXUXUXUXUXUXUXUXUXUXUXUXUXUXUXUXUXUXUXUXUXUXUXUXUXUXUXUXUXUXUXUXUX",
"UXUXUXUXUXUXUXUXUXUXUXUXUXUXUXUXUXUXUXUXUXUXUXUXUXUXUXUXUXUXUXUXUXUXUXUXX $ UXUXUXUXUXUXUXUXUXUXUXUXUXUXUXUXUXUXUXUXUXUXUXUXUXUXUXUXUXUXUXUXUXUXUXUXUXUXUXUXUXUXUXUXUXUXUXUXUXUXUXUXUXUXUXUXUXUXUXUXUXUXUXUXUXUXUXUXUXUXUXUX",
"UXUXUXUXUXUXUXUXUXUXUXUXUXUXUXUXUXUXUXUXUXUXUXUXUXUXUXUXUXUXUXUXUXUXUXo   $ UXUXUXUXUXUXUXUXUXUXUXUXUXUXUXUXUXUXUXUXUXUXUXUXUXUXUXUXUXUXUXUXUXUXUXUXUXUXUXUXUXUXUXUXUXUXUXUXUXUXUXUXUXUXUXUXUXUXUXUXUXUXUXUXUXUXUXUXUXUXUXUX",
"UXUXUXUXUXUXUXUXUXUXUXUXUXUXUXUXUXUXUXUXUXUXUXUXUXUXUXUXUXUXUXUXUXUXUXX $ $ UXUXUXUXUXUXUXUXUXUXUXUXUXUXUXUXUXUXUXUXUXUXUXUXUXUXUXUXUXUXUXUXUXUXUXUXUXUXUXUXUXUXUXUXUXUXUXUXUXUXUXUXUXUXUXUXUXUXUXUXUXUXUXUXUXUXUXUXUXUXUXUX",
"UXUXUXUXUXUXUXUXUXUXUXUXUXUXUXUXUXUXUX5X4X>XUXUXUXUXUXUXUXUXUXo o . X . UXUXUXUXUXUXUXUXUXUXUXUXUXUXUXUXUXUXUXUXUXUXUXUXUXUXUXUXUXUXUXUXUXUXUXUXUXUXUXUXUXUXUXUXUXUXUXUXUXUXUXUXUXUXUXUXUXUXUXUXUXUXUXUXUXUXUXUXUXUXUXUXUXUX",
"UXUXUXUXUXUXUXUXUXUXUXUXUXUXUXUXUXUX2Xz.g.G.,XS.  UXUXUXUXUXUXX # # $ UXUXUXUXUXUXUXUXUXUXUXUXUXUXUXUXUXUXUXUXUXUXUXUXUXUXUXUXUXUXUXUXUXUXUXUXUXUXUXUXUXUXUXUXUXUXUXUXUXUXUXUXUXUXUXUXUXUXUXUXUXUXUXUXUXUXUXUXUXUXUXUXUXUXUX",
"UXUXUXUXUXUXUXUXUXUXUXUXUXUXUXUXUXUX3X9.=.k.%XG.& # X X X X X X o $ UXUXUXUXUXUXUXUXUXUXUXUXUXUXUXUXUXUXUXUXUXUXUXUXUXUXUXUXUXUXUXUXUXUXUXUXUXUXUXUXUXUXUXUXUXUXUXUXUXUXUXUXUXUXUXUXUXUXUXUXUXUXUXUXUXUXUXUXUXUXUXUXUXUXUXUX",
"UXUXUXUXUXUXUXUXUXUXUXUXUXUXUXUXUXUX,XG.C.C.#X$X9XB   X # X o UXUXUXUXUXUXUXUXUXUXUXUXUXUXUXUXUXUXUXUXUXUXUXUXUXUXUXUXUXUXUXUXUXUXUXUXUXUXUXUXUXUXUXUXUXUXUXUXUXUXUXUXUXUXUXUXUXUXUXUXUXUXUXUXUXUXUXUXUXUXUXUXUXUXUXUXUXUXUX",
"UXUXUXUXUXUXUXUXUXUXUXUXUXUXUXUXUXUX4X|.Z.A.#X-XqXv   X o o $ UXUXUXUXUXUXUXUXUXUXUXUXUXUXUXUXUXUXUXUXUXUXUXUXUXUXUXUXUXUXUXUXUXUXUXUXUXUXUXUXUXUXUXUXUXUXUXUXUXUXUXUXUXUXUXUXUXUXUXUXUXUXUXUXUXUXUXUXUXUXUXUXUXUXUXUXUXUXUX",
"UXUXUXUXUXUXUXUXUXUXUXUXUXUXUXUXUXUXP S.#XZ.F.G.;XF.q.UXUXUXUXUXUXUXUXUXUXUXUXUXUXUXUXUXUXUXUXUXUXUXUXUXUXUXUXUXUXUXUXUXUXUXUXUXUXUXUXUXUXUXUXUXUXUXUXUXUXUXUXUXUXUXUXUXUXUXUXUXUXUXUXUXUXUXUXUXUXUXUXUXUXUXUXUXUXUXUXUXUXUX",
"UXUXUXUXUXUXUXUXUXUXUXUXUXUXUXUXUXUXW b.{.G.D.A.@X8X3XUXUXUXUXUXUXUXUXUXUXUXUXUXUXUXUXUXUXUXUXUXUXUXUXUXUXUXUXUXUXUXUXUXUXUXUXUXUXUXUXUXUXUXUXUXUXUXUXUXUXUXUXUXUXUXUXUXUXUXUXUXUXUXUXUXUXUXUXUXUXUXUXUXUXUXUXUXUXUXUXUXUXUX",
"UXUXUXUXUXUXUXUXUXUXUXUXUXUXUXUXUXUXUXT 2.:XG.C.A..X&X2XUXUXUXUXUXUXUXUXUXUXUXUXUXUXUXUXUXUXUXUXUXUXUXUXUXUXUXUXUXUXUXUXUXUXUXUXUXUXUXUXUXUXUXUXUXUXUXUXUXUXUXUXUXUXUXUXUXUXUXUXUXUXUXUXUXUXUXUXUXUXUXUXUXUXUXUXUXUXUXUXUXUX",
"UXUXUXUXUXUXUXUXUXUXUXUXUXUXUXUXUXUXUXUX4.:XG.C.A.@X&X2XUXUXUXUXUXUXUXUXUXUXUXUXUXUXUXUXUXUXUXUXUXUXUXUXUXUXUXUXUXUXUXUXUXUXUXUXUXUXUXUXUXUXUXUXUXUXUXUXUXUXUXUXUXUXUXUXUXUXUXUXUXUXUXUXUXUXUXUXUXUXUXUXUXUXUXUXUXUXUXUXUXUX",
"UXUXUXUXUXUXUXUXUXUXUXUXUXUXUXUXUXUXUXUXF & l.6XB.F.G.%X,XoXUXUXUXUXUXUXUXUXUXUXUXUXUXUXUXUXUXUXUXUXUXUXUXUXUXUXUXUXUXUXUXUXUXUXUXUXUXUXUXUXUXUXUXUXUXUXUXUXUXUXUXUXUXUXUXUXUXUXUXUXUXUXUXUXUXUXUXUXUXUXUXUXUXUXUXUXUXUXUXUX",
"UXUXUXUXUXUXUXUXUXUXUXUXUXUXUXUXUXUXUXUXUX  { d.G.F.F.#X#X:XUXUXUXUXUXUXUXUXUXUXUXUXUXUXUXUXUXUXUXUXUXUXUXUXUXUXUXUXUXUXUXUXUXUXUXUXUXUXUXUXUXUXUXUXUXUXUXUXUXUXUXUXUXUXUXUXUXUXUXUXUXUXUXUXUXUXUXUXUXUXUXUXUXUXUXUXUXUXUXUX",
"UXUXUXUXUXUXUXUXUXUXUXUXUXUXUXUXUXUXUXUXUX.   1 7X|.C.C.#X-X,XUXUXUXUXUXUXUXUXUXUXUXUXUXUXUXUXUXUXUXUXUXUXUXUXUXUXUXUXUXUXUXUXUXUXUXUXUXUXUXUXUXUXUXUXUXUXUXUXUXUXUXUXUXUXUXUXUXUXUXUXUXUXUXUXUXUXUXUXUXUXUXUXUXUXUXUXUXUXUX",
"UXUXUXUXUXUXUXUXUXUXUXUXUXUXUXUXUXUXUX    X   2 UXXX#XA.D.G.%X&X2XUXUXUXUXUXUXUXUXUXUXUXUXUXUXUXUXUXUXUXUXUXUXUXUXUXUXUXUXUXUXUXUXUXUXUXUXUXUXUXUXUXUXUXUXUXUXUXUXUXUXUXUXUXUXUXUXUXUXUXUXUXUXUXUXUXUXUXUXUXUXUXUXUXUXUXUXUX",
"UXUXUXUXUXUXUXUXUXUXUXUXUXUXUXUXUXUXUXX # #     UX5XXXA.D.D.$X=X:XUXUXUXUXUXUXUXUXUXUXUXUXUXUXUXUXUXUXUXUXUXUXUXUXUXUXUXUXUXUXUXUXUXUXUXUXUXUXUXUXUXUXUXUXUXUXUXUXUXUXUXUXUXUXUXUXUXUXUXUXUXUXUXUXUXUXUXUXUXUXUXUXUXUXUXUXUX",
"UXUXUXUXUXUXUXUXUXUXUXUXUXUXUXUXUXUXUXX .   6 w UXUXXX|.D.A.|.*X&X:XUXUXUXUXUXUXUXUXUXUXUXUXUXUXUXUXUXUXUXUXUXUXUXUXUXUXUXUXUXUXUXUXUXUXUXUXUXUXUXUXUXUXUXUXUXUXUXUXUXUXUXUXUXUXUXUXUXUXUXUXUXUXUXUXUXUXUXUXUXUXUXUXUXUXUXUX",
"UXUXUXUXUXUXUXUXUXUXUXUXUXUXUXUX$ $ $ .     Z A UXUXUX:X|.A.C.+X=X:X2XUXUXUXUXUXUXUXUXUXUXUXUXUXUXUXUXUXUXUXUXUXUXUXUXUXUXUXUXUXUXUXUXUXUXUXUXUXUXUXUXUXUXUXUXUXUXUXUXUXUXUXUXUXUXUXUXUXUXUXUXUXUXUXUXUXUXUXUXUXUXUXUXUXUXUX",
"UXUXUXUXUXUXUXUXUXUXUXUXUXUXUXUXUXUXUX$ .   h S A UXUXUX&X$XD.Z.G.$X:X:XUXUXUXUXUXUXUXUXUXUXUXUXUXUXUXUXUXUXUXUXUXUXUXUXUXUXUXUXUXUXUXUXUXUXUXUXUXUXUXUXUXUXUXUXUXUXUXUXUXUXUXUXUXUXUXUXUXUXUXUXUXUXUXUXUXUXUXUXUXUXUXUXUXUX",
"UXUXUXUXUXUXUXUXUXUXUXUXUXUXUXUXUXUXUX      E #./ 3.UXUXoX&XC.M.D.$X=X>XUXUXUXUXUXUXUXUXUXUXUXUXUXUXUXUXUXUXUXUXUXUXUXUXUXUXUXUXUXUXUXUXUXUXUXUXUXUXUXUXUXUXUXUXUXUXUXUXUXUXUXUXUXUXUXUXUXUXUXUXUXUXUXUXUXUXUXUXUXUXUXUXUXUX",
"UXUXUXUXUXUXUXUXUXUXUXUXUXUXUXUXUXUXUXT E } w.r.5.3.UXUXUXn. XG.Z.G.#X:X:XUXUXUXUXUXUXUXUXUXUXUXUXUXUXUXUXUXUXUXUXUXUXUXUXUXUXUXUXUXUXUXUXUXUXUXUXUXUXUXUXUXUXUXUXUXUXUXUXUXUXUXUXUXUXUXUXUXUXUXUXUXUXUXUXUXUXUXUXUXUXUXUXUX",
"UXUXUXUXUXUXUXUXUXUXUXUXUXUXUXUXUXUXUXy.c.Z.S.b.4.0.W UXUXr.XXG.Z.V.G.=X:X:XUXUXUXUXUXUXUXUXUXUXUXUXUXUXUXUXUXUXUXUXUXUXUXUXUXUXUXUXUXUXUXUXUXUXUXUXUXUXUXUXUXUXUXUXUXUXUXUXUXUXUXUXUXUXUXUXUXUXUXUXUXUXUXUXUXUXUXUXUXUXUXUX",
"UXUXUXUXUXUXUXUXUXUXUXUXUXUXUXUXUXUXt.r.r.l.V.V.g.z.S.qX4X2X4.M.$X..j.7X3X>XUXUXUXUXUXUXUXUXUXUXUXUXUXUXUXUXUXUXUXUXUXUXUXUXUXUXUXUXUXUXUXUXUXUXUXUXUXUXUXUXUXUXUXUXUXUXUXUXUXUXUXUXUXUXUXUXUXUXUXUXUXUXUXUXUXUXUXUXUXUXUXUX",
"UXUXUXUXUXUXUXUXUXUXUXUXUXUXUXUXUXUXUXUXr.l.V.F.;X-X%X;X2XUXUXUXUXx.C.|.M.UXUXUXUXUXUXUXUXUXUXUXUXUXUXUXUXUXUXUXUXUXUXUXUXUXUXUXUXUXUXUXUXUXUXUXUXUXUXUXUXUXUXUXUXUXUXUXUXUXUXUXUXUXUXUXUXUXUXUXUXUXUXUXUXUXUXUXUXUXUXUXUXUX",
"UXUXUXUXUXUXUXUXUXUXUXUXUXUXUXUXUXUXUXUXUXg.C.OXjXeX9X.XUXUXUXUXUX2X#XM.UXUXUXUXUXUXUXUXUXUXUXUXUXUXUXUXUXUXUXUXUXUXUXUXUXUXUXUXUXUXUXUXUXUXUXUXUXUXUXUXUXUXUXUXUXUXUXUXUXUXUXUXUXUXUXUXUXUXUXUXUXUXUXUXUXUXUXUXUXUXUXUXUXUX",
"UXUXUXUXUXUXUXUXUXUXUXUXUXUXUXUXUXUXUXUXUXZ.G.+XeX9X7X}.UXUXUXUXUX{.D.m.4.UXUXUXUXUXUXUXUXUXUXUXUXUXUXUXUXUXUXUXUXUXUXUXUXUXUXUXUXUXUXUXUXUXUXUXUXUXUXUXUXUXUXUXUXUXUXUXUXUXUXUXUXUXUXUXUXUXUXUXUXUXUXUXUXUXUXUXUXUXUXUXUXUX",
"UXUXUXUXUXUXUXUXUXUXUXUXUXUXUXUXUXUXUXUXUXaXtX9X#X#X+XZ.UXUXUXUXUX#.7.g.6.UXUXUXUXUXUXUXl.w.l.m.S.XX:X2XiXmXKXAXcXgXgX3X$.l.XXvXlXvXAXVXHXHXmXVXmXcXlXzXKXgXXX:X.XM.O.UXUXUXUXUXUXUXUXUXUXUXUXUXUXUXUXUXUXUXUXUXUXUXUXUXUXUX",
"UXUXUXUXUXUXUXUXUXUXUXUXUXUXUXUXUXUXrX4X4X&X&X$XF.#X%XD.UXUXUXUXUXUX%.7.-.UXUXUXUXUXXX7X=XG.h.k.v.F.|.&X#X$X8X;X$X$X$XF.>.i.s.C.V.v.V.%XMXMXqXG.C.B.-XpXZXeX%XG.l.p.o.4.UXUXUXUXUXUXUXUXUXUXUXUXUXUXUXUXUXUXUXUXUXUXUXUXUXUX",
"UXUXUXUXUXUXUXUXUXUXUXUXUXUXUXUXUXUXpXqX3X#X#X|.V.#X*XA.UXUXUXUXUXUXUX$.:.UXUXUXUXV.#X;X$X+Xs.s.k.V.G.*XC.B.B.V.V.V.v.h.=.=.=.=.=.=.X.C.nXbX-X1... .G.eXnXeX;XC.p.=.| 2.UXUXUXUXUXUXUXUXUXUXUXUXUXUXUXUXUXUXUXUXUXUXUXUXUXUX",
"UXUXUXUXUXUXUXUXUXUXUXUXUXUXUXUXUX4X0X7X;XG.#X#XG..X|.Z.UXUXUXUXUXUXUXk.A.l.r.b.G.;XeXsXqX9X@XOX#X|.%X-X#X%X%X-X-X6X9X8XG.F.C.i.s.h.h.@XnXnXsXOXC.A.G.%XbX6XOX*Xk.i.z.q.I UXUXUXUXUXUXUXUXUXUXUXUXUXUXUXUXUXUXUXUXUXUXUXUXUX",
"UXUXUXUXUXUXUXUXUXUXUXUXUXUXUXtXqX7X+X#X+XC.#X-X1X XN.UXUXUXUXUXUXUXUX8XpXbXMXmXDXSXSXSXVXBXNXxXgX3X7X7XqXsXfXhXbXnXFXGXDXnXfXB.A.G.=X;XnXMXMXnXbXnXG.g.pXF.s.fXG.k.bXV.B ..X.@.C @.M.I @.Z.X.:.3XP UXUXUXUXUXUXUXUXUXUXUXUX",
"UXUXUXUXUXUXUXUXUXUXUXUXiX0X3X=X$X#XC.#X=X=X|.b.UXUXUXUXUXUXUXUXUXUXw.A.G.*X6X-X6X6X;X@X8.T.Q.Y.H x.G.%X-X6X8XqXfXfXnXMXnXfX8X;.j.v.G.#X6X6X7X6X7X8Xk.i.7Xk.1.7Xv.1.9XV.=...*.:.[ X.i.[ +.V.@.<.3XP UXUXUXUXUXUXUXUXUXUXUXUX",
"UXUXUXUXUXUXUXUXUXUXUX3XtX9X;X|.#X.XD.|.+XG.C.l.UXUXUX0.e.l.z.M.M.n.l.l.C.G.#X@X#X#X#Xx.R.H.!.P.J.a.A.#X-X;X8XeXeXfXnXnXbXfX0X1.s.s.k.A.F.D.F.F.G.G.i.9.@Xs.1.G.j.<.G.j.;. .=.1.[ X.1.{ X.k...;.=XP UXUXUXUXUXUXUXUXUXUXUXUX",
"UXUXUXUXUXUXUXUXUX>X3X=X+X$X|.C.*X-X*XD.j.=.p.j.B.$XqX7XtXkXkXMXFXFXqXg.C.OX*X*X#X#X*XV.W.U.^.~.L./.G.=X6X9XsXfXfXeXjXbXbXfX0XB.1.=.<.=.;.=.*.-.-.*.;.;.*.,.:.@.=.>.1.1.;.K X.1.{ X.1.{ ..1. .*..XZ UXUXUXUXUXUXUXUXUXUXUXUX",
"UXUXUXUXUXUXUXM.|.=XG.D.F.$X%X#XF.B.s.s.k.k.D.#X#X=X-X;X6X;X6X=X%X-XG.B.F.+X7X9XwX9X6XV.R.H.I.U.K.a.OX9X9XeXpXsXsX9XhXbXnXfXsX1X;X#X@.*XG.G.fXF.F.fXG.A.fXV.1.6X6X+X, ] g.z G $.> a :.> i ;.1 s $XP UXUXUXUXUXUXUXUXUXUXUXUX",
"UXUXUXUXUXUXUXZ.|.#XF.F.F.#X+XF.V.s.;.s.s.k.D.G.#XG.@X+X#X+XG.A.B.z.B.B.C.G.6X9XeXwX9XOX8.T.Y.E.J x.#XqX8XwXsXsXeX6XhXnXjXfXsXqX9X;X@.eX#X%XGX#X#XGX-XG.GXG.,.wXeX6X  B g.V | 7.7 N s.u z s.i v M.Z UXUXUXUXUXUXUXUXUXUXUXUX",
"UXUXUXUXUXUXUXD..X&X-X;X%Xm.s.,.<.,.;.-.;.;.s.s.j.s.s.s.s.s.s.s.s.g.j.h.A.G.*X*XwXwXwXsXeXyX<X<XtX0XwXwX-X;XqXwX1X@XfXnXfXeX9X-XG.V.*.jXV.F.PXB.V.PXG.h.IX-X;.%X*XG.  s ,.+X-X9XeXwX8XeX8X0X;XC.} b UXUXUXUXUXUXUXUXUXUXUXUX",
"UXUXUXUXUXUXUXUXZ.G.A.v.s.s.1.1.s.s.s.k.B.v.V.V.C.V.A.V.A.V.B.k.k.s.j.j.C.G.*X=XOXC.k.k.C.OX*X;X6X6X7X7X-X-X8X7X;X.XpXhXhXwX1X-XG.V.*.qXk.A.GXs.k.PXC.s.PX-X=.D.OXG.X > 7 a s z s s N s s z a s n e UXUXUXUXUXUXUXUXUXUXUXUX",
"UXUXUXUXUXUXUXUXUXD.V.s.=.;.<.<.s.k.V.A.F.D.A.A.A.A.A.F.D.D.V.V.B.j.s.k.C.|.$X$Xz.1.$.*.q.B.%X;X7X7X6X6X%X=X7X7X;X#XeXhXjX9X6X-XG.C.@.9Xh.B.MX1.s.PXB.i.IX=X;.B.G.G.                          o c e UXUXUXUXUXUXUXUXUXUXUXUX",
"UXUXUXUXUXUXUXUXUXB.h.q.<.9.1.1.k.k.C.F.|.G.G.G.G.G.G.G.G.G.C.C.V.v.k.k.Z.S.oX}.j.k.k.9.s.B.*X*X;X;X=X6X%X=X=X=X*X@XsXfXfX7X;X%XG.C.@.9XF.G.SXV.C.JXA.s.JX#X$.k.G.G.= = = 1 * 1 * = = * = = * 5 e e UXUXUXUXUXUXUXUXUXUXUXUX",
"UXUXUXUXUXUXUXUXUX1.1.1.1.h.v.A.V.A.G.%X7X6X7X6X6X6X;X7X6X6X-X#XG.G.F.V.S.].'.'.q.G.=Xk.j.k.#X*X-X-X$XoXoXoXoX$X-X#XsXfXqX7X;X-XG.C.@.9XwX9XMX9X6XMXG.v.DXD.;.s.F. Xx c c x x x l g l g l l l g w e UXUXUXUXUXUXUXUXUXUXUXUX",
"UXUXUXUXUXUXUXUXUX1 , 2 1 1 2 2 2 2 4 4 4 7 4 7 u 9 y 4 u 4 4 4 4 4 4 3 z.`.(.(.:.A.-Xs.p.1.#X%X#X%X}.'.[.[.'.$X#X#X9XeXeX7X;X=XG.C.*.#XA.A.qX*X*XqX#X#XqXB.>.,.Z..Xw Z | | | | o.} o.o.} | o.o.| E UXUXUXUXUXUXUXUXUXUXUXUX",
"UXUXUXUXUXUXUXUX. .         o   o           .     +                     V.n.(.).%.C.%Xh.i.1.%X%X%X*X}.(._._.).}.%X#X9XeX9X7X8X-XOXD.<.#XF.A.7X7X6X6X6X6X9XV.i.>.D..Xf I $.-.*.=.@.$.@.$.*.+.*.*.@.&.UXUXUXUXUXUXUXUXUXUXUXUX",
"UXUXUXUXUXUXUXUXUXUXUXUXUXUXUXUXUXUXUXX # # @ @ @ X @ @   UXUX2 p @ @ X l.M.n.c.,.k.F.k.s.1.F.G.F.G.S.`.`.`.`.{.D.A.6X7X6X%X#XG.k.1.a k. ...1X*.@.;X*...;XX.s =.B.M.g D ..@.@.@...*.s. .@.s.@.*.s.U UXUXUXUXUXUXUXUXUXUXUXUX",
"UXUXUXUXUXUXUXUXUXUXUXUXUXUXUXUXUXUXUX$ + + + @ @ X # # UXUXUXUX{ # @ # B.F.V.d.>.j.k.h.i.<.B.k.k.k.k.k.k.k.k.k.k.k.D.OX#XD.V.k.;.]   X.1 4 @X> > #X4 & #Xp   X.q.g.k B I X.X.@.C =.A.{ *.A.*.,.M.Z UXUXUXUXUXUXUXUXUXUXUXUX",
"UXUXUXUXUXUXUXUXUXUXUXUXUXUXUXUXUXUXUXUXUX] C G C C C C UXUXUX .C # X   & > # 3 X.1.k.k.s.<.;.v X % % & & & % > # % & & > & > > & #   N ..s         s [ <.u   % & %   v 9...@.1.K X.1.[ X.B.X.=.V.D UXUXUXUXUXUXUXUXUXUXUXUX",
"UXUXUXUXUXUXUXUXUXUXUXUXUXUXUXUXUXUXUXUXUX{ I  . .{  .{ UXUXUX .[ @ , 9 @ , > &  .;.s.1.,.+.N 4   +       @ +   X X X + + X + + X X   s *.' s s N s {  .*.4   X @ o * G 9.{ @.1.[  .1.{ | s...X.d.n UXUXUXUXUXUXUXUXUXUXUXUX",
"UXUXUXUXUXUXUXUXUXUXUXUXUXUXUXUXUXUXUXUXUXUXX.@.X.X.X.X.UXUXUX@...  i X.X u u @ C ..@...| }       +   X X X . X X + X X X X X X . #   p =.9.A.C.V.A.1.@.{ u X @ o o g U 1.[ X.1.{ X.1.{ ..1.{  .6.n UXUXUXUXUXUXUXUXUXUXUXUX",
"UXUXUXUXUXUXUXUXUXUXUXUXUXUXUXUXUXUXUXUXUXUX......@.X.X.UXUXUX..X.& i  .> i u , I ..o.o.o.U > > % , , : X X @   # : # @ @ @ X X @ X   i  .@.1.1.1.i.@.{ C 2   @ + $ f U 6.G X.1.C { 1.V { <.G ] q.n UXUXUXUXUXUXUXUXUXUXUXUX",
"UXUXUXUXUXUXUXUXUXUXUXUXUXUXUXUXUXUXUXUXUXUXUXUX*.@.@.@.UXUXUX+.@.' X.=.'  . .{ $.U Z 0.~ Y I I ] j.k.k.&       4 k.4   @ X X X X # @ X # X X X @ . @ @       X + . f O.l.a V *.  4 ;.  2 :.@ 2 q.n UXUXUXUXUXUXUXUXUXUXUXUX",
"UXUXUXUXUXUXUXUXUXUXUXUXUXUXUXUXUXUXUXUXUXUXUXUXUX;.<.;.UXUXUX;.;. .@.<...@.@.X.<.b 6 2.! Q P I ..k.V.B.' B N V N s >   + + @ @ @ X @ X # X X X @ @ @ @   a N   i D f U :.} @.s.[ *.s.{ X.d.C C $.n UXUXUXUXUXUXUXUXUXUXUXUX",
"UXUXUXUXUXUXUXUXUXUXUXUXUXUXUXUXUXUXUXUXUXUXUXUXUX:.1.1.UXUXUX1.1.@.;.9.=.;.=.=.s.i   ! ! ! R E ..F.C.V.h.h.s.k...  # @ @ @ . + X   X X X X   X   + X .   ] ;.  B 7.f F -.7.l.F.G.G.F.G.F.D.j.1.| b UXUXUXUXUXUXUXUXUXUXUXUX",
"UXUXUXUXUXUXUXUXUXUXUXUXUXUXUXUXUXUXUXUXUXUXUXUXUXUXUX<.UXUXUXUX<.*.;.1.@.=.=.*.s.a   Q ! ^ L E X.V.V.k.X.{  ...N   # . @ @ @ . > 3 X > # # 1 * * * * * + } p.i | d.D G C { @.;.=.*.>.=.=.;...} U x UXUXUXUXUXUXUXUXUXUXUXUX",
"UXUXUXUXUXUXUXUXUXUXUXUXUXUXUXUXUXUXUXUXUXUXUXUXUXUXUXUXUXUXUXUXUXUXUXUXUXUXUXUXUXUXUXZ ! ) L E *.j.p.1.&         . UXUXUXUXUX  N [   z , 2 } b h h h e w w.qX0X3X;X;XG                       $ x g UXUXUXUXUXUXUXUXUXUXUXUX",
"UXUXUXUXUXUXUXUXUXUXUXUXUXUXUXUXUXUXUXUXUXUXUXUXUXUXUXUXUXUXUXUXUXUXUXUXUXUXUXUXUXUXUX* S ( ^ O.*.V.B.k.UXUXUXUXUXUXUXUXUXUXUXUX, 3   z , 1  .UXUXUXh h e A o.T U U U l 8 q 8 0 0 6 6 8 8 6 6 8 w g UXUXUXUXUXUXUXUXUXUXUXUX",
"UXUXUXUXUXUXUXUXUXUXUXUXUXUXUXUXUXUXUXUXUXUXUXUXUXUXUXUXUXUXUXUXUXUXUXUXUXUXUXUXUXUXUXO k ! ( #.@.C.V.B.UXUXUXUXUXUXUXUXUXUXUXUXUX- O i > , V UXUXUXs l w q q q q q q q h h l j j B F F F F D F Z D UXUXUXUXUXUXUXUXUXUXUXUX",
"UXUXUXUXUXUXUXUXUXUXUXUXUXUXUXUXUXUXUXUXUXUXUXUXUXUXUXUXUXUXUXUXUXUXUXUXUXUXUXUXUXUXUXUXd A ) #.$.h.s.u.UXUXUXUXUXUXUXUXUXUXUXUXUXt - X @ @ - UXUXUXUXUXj h h h e e h e h b y r r UXUXUXUXUXUXUXUXUXUXUXUXUXUXUXUXUXUXUXUXUX",
"UXUXUXUXUXUXUXUXUXUXUXUXUXUXUXUXUXUXUXUXUXUXUXUXUXUXUXUXUXUXUXUXUXUXUXUXUXUXUXUXUXUXUXUX' Z ( / o.d.s.u.UXUXUXUXUXUXUXUXUXUXUXUXUXUX; - - - r UXUXUXUXUX` m m j j m M M M M _ UXUXUXUXUXUXUXUXUXUXUXUXUXUXUXUXUXUXUXUXUXUXUX"
};
