/* XPM */
static char *_501790344098[] = {
/* columns rows colors chars-per-pixel */
"45 45 155 2 ",
"   c #111110",
".  c #131312",
"X  c #141413",
"o  c #151413",
"O  c #151514",
"+  c #161514",
"@  c #171716",
"#  c #191817",
"$  c #191918",
"%  c #1A1918",
"&  c #1A1A19",
"*  c #1B1A19",
"=  c #1C1B1A",
"-  c #1D1B1A",
";  c #221F1E",
":  c #242020",
">  c #252120",
",  c #272322",
"<  c #242423",
"1  c #252524",
"2  c #272726",
"3  c #282322",
"4  c #2A2423",
"5  c #2B2524",
"6  c #2F2726",
"7  c #2E2827",
"8  c #292928",
"9  c #2B2B2A",
"0  c gray17",
"q  c #2F2928",
"w  c #2C2C2B",
"e  c #2E2E2D",
"r  c gray18",
"t  c #2F2F2E",
"y  c #2F2F2F",
"u  c #302827",
"i  c #312828",
"p  c #322928",
"a  c #332928",
"s  c #322A29",
"d  c #332B2A",
"f  c #342A29",
"g  c #342A2A",
"h  c #362D2C",
"j  c #382C2B",
"k  c #392C2C",
"l  c #3B2D2D",
"z  c #392F2E",
"x  c #3C2E2D",
"c  c #3D2E2E",
"v  c #3E2F2F",
"b  c #3F2F2F",
"n  c #30302F",
"m  c #323231",
"M  c #323232",
"N  c #353535",
"B  c #3E3231",
"V  c #393938",
"C  c #3B3B3A",
"Z  c #3C3C3B",
"A  c #3D3D3C",
"S  c #3F3F3F",
"D  c #40302F",
"F  c #41302F",
"G  c #403333",
"H  c #453231",
"J  c #463232",
"K  c #423433",
"L  c #443635",
"P  c #463736",
"I  c #483332",
"U  c #493433",
"Y  c #4A3434",
"T  c #4A3534",
"R  c #4C3534",
"E  c #4F3635",
"W  c #4F3636",
"Q  c #473837",
"!  c #493938",
"~  c #4A3C3C",
"^  c #493E3D",
"/  c #4B3E3E",
"(  c #4C3E3D",
")  c #503636",
"_  c #513636",
"`  c #533737",
"'  c #573938",
"]  c #5B3A39",
"[  c #5D3A3A",
"{  c #5D3B3A",
"}  c #5E3B3A",
"|  c #613B3B",
" . c #643D3C",
".. c #663D3D",
"X. c #673D3D",
"o. c #673E3D",
"O. c #693D3D",
"+. c #693E3D",
"@. c #6A3E3E",
"#. c #6C3F3E",
"$. c #40403F",
"%. c gray25",
"&. c #414140",
"*. c #414141",
"=. c #424241",
"-. c #434342",
";. c #444443",
":. c #444444",
">. c #464645",
",. c gray28",
"<. c #484847",
"1. c #494948",
"2. c #4A4A49",
"3. c gray29",
"4. c #4E4E4E",
"5. c gray31",
"6. c #50504F",
"7. c #515150",
"8. c gray32",
"9. c #535353",
"0. c #555555",
"q. c #565656",
"w. c #585857",
"e. c gray35",
"r. c #5A5A5A",
"t. c gray36",
"y. c #5D5D5C",
"u. c #5D5D5D",
"i. c #5F5F5E",
"p. c #5F5F5F",
"a. c #60605F",
"s. c #606060",
"d. c gray38",
"f. c gray39",
"g. c #646464",
"h. c #676767",
"j. c DimGray",
"k. c #6A6A6A",
"l. c gray42",
"z. c #6C6C6C",
"x. c #717171",
"c. c gray45",
"v. c gray46",
"b. c #767676",
"n. c #777777",
"m. c #797979",
"M. c #7A7A79",
"N. c gray48",
"B. c #7B7B7B",
"V. c #7C7C7C",
"C. c gray49",
"Z. c #7E7E7E",
"A. c gray50",
"S. c #818181",
"D. c None",
/* pixels */
"D.D.D.D.D.D.D.D.D.D.D.D.D.D.D.D.D.D.D.D.D.D.D.D.D.D.D.D.D.D.D.D.D.D.D.D.D.D.D.D.D.D.D.D.D.",
"D.D.D.D.D.D.D.D.D.D.D.D.D.D.D.D.D.D.D.D.D.D.D.D.D.D.D.D.D.D.D.D.D.D.D.D.D.D.D.D.D.D.D.D.D.",
"D.D.D.D.D.D.D.D.D.D.D.D.D.D.D.D.D.D.D.D.D.D.D.D.D.D.D.D.D.D.D.D.D.D.D.D.D.D.D.D.D.D.D.D.D.",
"D.D.D.D.D.D.D.D.D.D.D.D.D.D.D.D.D.D.D.D.D.D.D.D.D.D.D.D.D.D.D.D.D.D.D.D.D.D.D.D.D.D.D.D.D.",
"D.D.D.D.D.D.D.D.D.Q h a f G ( D.D.D.D.D.D.D.D.D.D.D.D.D.D.D./ Q B G ! D.D.D.D.D.D.D.D.D.D.",
"D.D.D.D.D.D.D.Y = ,.t.s.a.5.X x @.D.D.D.D.D.D.D.D.D.D.D.| k O :.5.5.=.# D #.D.D.D.D.D.D.D.",
"D.D.D.D.D. .= <.b.S.S.S.S.S.Z.e.w I D.D.D.D.D.D.D.D.D.a N i.Z.S.S.S.S.m.q.0 Y D.D.D.D.D.D.",
"D.D.D.D.] M s.S.S.S.S.S.S.S.S.S.Z.S a D.D.D.D.D.D. .X 8.S.S.S.S.S.S.S.S.S.Z.S a D.D.D.D.D.",
"D.D.D.+.0 k.S.S.S.S.S.S.S.S.S.S.S.S.=.a D.D.D.D. .d p.S.S.S.S.S.S.S.S.S.S.S.S.S k D.D.D.D.",
"D.D.D.= e.S.S.S.S.S.S.S.S.S.S.S.S.S.S.S R D.D.D.O u.S.S.S.S.S.S.S.S.S.S.S.S.S.S.Z ] D.D.D.",
"D.D.` =.S.S.S.S.S.S.S.S.S.S.S.S.S.S.S.m.1 D.D.a 3.S.S.S.S.S.S.S.S.S.S.S.S.S.S.S.k.O D.D.D.",
"D.D.* c.S.S.S.S.S.S.S.S.S.S.S.S.S.S.S.S.8.B  .w S.S.S.S.S.S.S.S.S.S.S.S.S.S.S.S.S.=.' D.D.",
"D. .n S.S.S.S.S.S.S.S.S.S.S.S.S.S.S.S.S.Z.. @ e.S.S.S.S.S.S.S.S.S.S.S.S.S.S.S.S.S.k.4 D.D.",
"D.Y 5.S.S.S.S.S.S.S.S.S.S.S.S.S.S.S.S.S.S.S.N.S.S.S.S.S.S.S.S.S.S.S.S.S.S.S.S.S.S.S.  / D.",
"D.a s.S.S.S.S.S.S.S.S.S.S.S.S.S.S.S.S.S.S.S.S.S.S.S.S.S.S.S.S.S.S.S.S.S.S.S.S.S.S.S.2.L D.",
"D.; c.S.S.S.S.S.S.S.S.S.S.S.S.S.S.S.S.S.S.S.S.S.S.S.S.S.S.S.S.S.S.S.S.S.S.S.S.S.S.S.e.k D.",
"D.# m.S.S.S.S.S.S.S.S.S.S.S.S.S.S.S.S.S.S.S.S.S.S.S.S.S.S.S.S.S.S.S.S.S.S.S.S.S.S.S.s.a D.",
"D.X Z.S.S.S.S.S.S.S.S.S.S.S.S.S.S.S.S.S.S.S.S.S.S.S.S.S.S.S.S.S.S.S.S.S.S.S.S.S.S.S.g.w D.",
"D.# m.S.S.S.S.S.S.S.S.S.S.S.S.S.S.S.S.S.S.S.S.S.S.S.S.S.S.S.S.S.S.S.S.S.S.S.S.S.S.S.a.f D.",
"D.3 z.S.S.S.S.S.S.S.S.S.S.S.S.S.S.S.S.S.S.S.S.S.S.S.S.S.S.S.S.S.S.S.S.S.S.S.S.S.S.S.8.B D.",
"D.D w.S.S.S.S.S.S.S.S.S.S.S.S.S.S.S.S.S.S.S.S.S.S.S.S.S.S.S.S.S.S.S.S.S.S.S.S.S.S.S.C ~ D.",
"D. .M S.S.S.S.S.S.S.S.S.S.S.S.S.S.S.S.S.S.S.S.S.S.S.S.S.S.S.S.S.S.S.S.S.S.S.S.S.S.y.u D.D.",
"D.D.; y.S.S.S.S.S.S.S.S.S.S.S.S.S.S.S.S.S.S.S.S.S.S.S.S.S.S.S.S.S.S.S.S.S.S.S.S.S.r  .D.D.",
"D.D. .d Z.S.S.S.S.S.S.S.S.S.S.S.S.S.S.S.S.S.S.S.S.S.S.S.S.S.S.S.S.S.S.S.S.S.S.S.=.x D.D.D.",
"D.D.D.Y S S.S.S.S.S.S.S.S.S.S.S.S.S.S.S.S.S.S.S.S.S.S.S.S.S.S.S.S.S.S.S.S.S.S.2.; D.D.D.D.",
"D.D.D.D.G S Z.S.S.S.S.S.S.S.S.S.S.S.S.S.S.S.S.S.S.S.S.S.S.S.S.S.S.S.S.S.S.S.,.; D.D.D.D.D.",
"D.D.D.D.D.U C h.S.S.S.S.S.S.S.S.S.S.S.S.S.S.S.S.S.S.S.S.S.S.S.S.S.S.S.S.m.S a D.D.D.D.D.D.",
"D.D.D.D.D.D.[ . 8.S.S.S.S.S.S.S.S.S.S.S.S.S.S.S.S.S.S.S.S.S.S.S.S.S.S.t.r Y D.D.D.D.D.D.D.",
"D.D.D.D.D.D.D.D.f C k.S.S.S.S.S.S.S.S.S.S.S.S.S.S.S.S.S.S.S.S.S.S.n.%.4  .D.D.D.D.D.D.D.D.",
"D.D.D.D.D.D.D.D.D.[ = :.S.S.S.S.S.S.S.S.S.S.S.S.S.S.S.S.S.S.S.S.9.1 ` D.D.D.D.D.D.D.D.D.D.",
"D.D.D.D.D.D.D.D.D.D.D.H w e.S.S.S.S.S.S.S.S.S.S.S.S.S.S.S.S.k.S f D.D.D.D.D.D.D.D.D.D.D.D.",
"D.D.D.D.D.D.D.D.D.D.D.D.+.6 S b.S.S.S.S.S.S.S.S.S.S.S.S.S.8.. ] D.D.D.D.D.D.D.D.D.D.D.D.D.",
"D.D.D.D.D.D.D.D.D.D.D.D.D.D.R M y.S.S.S.S.S.S.S.S.S.S.S.=.4 D.D.D.D.D.D.D.D.D.D.D.D.D.D.D.",
"D.D.D.D.D.D.D.D.D.D.D.D.D.D.D. .# 5.S.S.S.S.S.S.S.S.m.S x D.D.D.D.D.D.D.D.D.D.D.D.D.D.D.D.",
"D.D.D.D.D.D.D.D.D.D.D.D.D.D.D.D.D., :.S.S.S.S.S.S.b.=.Y D.D.D.D.D.D.D.D.D.D.D.D.D.D.D.D.D.",
"D.D.D.D.D.D.D.D.D.D.D.D.D.D.D.D.D.D.3 ;.S.S.S.S.b.S ` D.D.D.D.D.D.D.D.D.D.D.D.D.D.D.D.D.D.",
"D.D.D.D.D.D.D.D.D.D.D.D.D.D.D.D.D.D.D., :.S.S.S.S R D.D.D.D.D.D.D.D.D.D.D.D.D.D.D.D.D.D.D.",
"D.D.D.D.D.D.D.D.D.D.D.D.D.D.D.D.D.D.D.D.= 0.S.S H D.D.D.D.D.D.D.D.D.D.D.D.D.D.D.D.D.D.D.D.",
"D.D.D.D.D.D.D.D.D.D.D.D.D.D.D.D.D.D.D.D.D.2 <.u D.D.D.D.D.D.D.D.D.D.D.D.D.D.D.D.D.D.D.D.D.",
"D.D.D.D.D.D.D.D.D.D.D.D.D.D.D.D.D.D.D.D.D.H * D.D.D.D.D.D.D.D.D.D.D.D.D.D.D.D.D.D.D.D.D.D.",
"D.D.D.D.D.D.D.D.D.D.D.D.D.D.D.D.D.D.D.D.D.D.[ D.D.D.D.D.D.D.D.D.D.D.D.D.D.D.D.D.D.D.D.D.D.",
"D.D.D.D.D.D.D.D.D.D.D.D.D.D.D.D.D.D.D.D.D.D.D.D.D.D.D.D.D.D.D.D.D.D.D.D.D.D.D.D.D.D.D.D.D.",
"D.D.D.D.D.D.D.D.D.D.D.D.D.D.D.D.D.D.D.D.D.D.D.D.D.D.D.D.D.D.D.D.D.D.D.D.D.D.D.D.D.D.D.D.D.",
"D.D.D.D.D.D.D.D.D.D.D.D.D.D.D.D.D.D.D.D.D.D.D.D.D.D.D.D.D.D.D.D.D.D.D.D.D.D.D.D.D.D.D.D.D.",
"D.D.D.D.D.D.D.D.D.D.D.D.D.D.D.D.D.D.D.D.D.D.D.D.D.D.D.D.D.D.D.D.D.D.D.D.D.D.D.D.D.D.D.D.D."
};
