/* XPM */
static char *_501790348557[] = {
/* columns rows colors chars-per-pixel */
"45 45 220 2 ",
"   c #111110",
".  c #141211",
"X  c #161212",
"o  c #161312",
"O  c #141413",
"+  c #151413",
"@  c #151514",
"#  c #161514",
"$  c #181312",
"%  c #191615",
"&  c #1C1514",
"*  c #1D1514",
"=  c #1C1615",
"-  c #1F1615",
";  c #191918",
":  c #201515",
">  c #201615",
",  c #211615",
"<  c #201716",
"1  c #271918",
"2  c #271919",
"3  c #271D1C",
"4  c #291B1A",
"5  c #2E1B1A",
"6  c #301A19",
"7  c #361B1A",
"8  c #351D1C",
"9  c #361D1C",
"0  c #341F1E",
"q  c #351F1E",
"w  c #3B1C1B",
"e  c #3C1F1E",
"r  c #2B201F",
"t  c #39201F",
"y  c #3A201F",
"u  c #292221",
"i  c #282323",
"p  c #2B2322",
"a  c #2B2524",
"s  c #2F2524",
"d  c #292928",
"f  c #2B2B2A",
"g  c #2E2E2D",
"h  c #302221",
"j  c #332322",
"k  c #352423",
"l  c #322726",
"z  c #322727",
"x  c #362424",
"c  c #382423",
"v  c #3B2524",
"b  c #382727",
"n  c #312828",
"m  c #322928",
"M  c #332928",
"N  c #332B2A",
"B  c #362A29",
"V  c #3D2928",
"C  c #3E2928",
"Z  c #3F2928",
"A  c #3F2929",
"S  c #382C2B",
"D  c #392C2C",
"F  c #353535",
"G  c #3F3B3B",
"H  c #3C3C3B",
"J  c #3F3F3F",
"K  c #421E1E",
"L  c #451F1E",
"P  c #461F1E",
"I  c #471F1F",
"U  c #4A1F1E",
"Y  c #4C201F",
"T  c #56201F",
"R  c #412020",
"E  c #412120",
"W  c #442424",
"Q  c #4A2625",
"!  c #402827",
"~  c #412827",
"^  c #4E2827",
"/  c #422928",
"(  c #442928",
")  c #442B2A",
"_  c #452B2A",
"`  c #452F2E",
"'  c #482B2A",
"]  c #4D2929",
"[  c #4E2A29",
"{  c #4E2B2A",
"}  c #4B2D2D",
"|  c #4C2D2D",
" . c #4E2D2D",
".. c #562121",
"X. c #562525",
"o. c #582323",
"O. c #512F2E",
"+. c #572C2C",
"@. c #41302F",
"#. c #493433",
"$. c #4E3737",
"%. c #483837",
"&. c #463A39",
"*. c #423D3C",
"=. c #413E3D",
"-. c #403F3E",
";. c #4D3B3A",
":. c #573938",
">. c #5B3A39",
",. c #5A3B3A",
"<. c #5E3938",
"1. c #5C3D3C",
"2. c #5E3D3D",
"3. c #632221",
"4. c #632222",
"5. c #622322",
"6. c #632322",
"7. c #652020",
"8. c #642121",
"9. c #652323",
"0. c #672424",
"q. c #6B2524",
"w. c #6E2525",
"e. c #6F2727",
"r. c #732323",
"t. c #742323",
"y. c #742524",
"u. c #7F2827",
"i. c #7C2929",
"p. c #613B3B",
"a. c #643939",
"s. c #673C3B",
"d. c #643D3C",
"f. c #673E3D",
"g. c #6C3F3E",
"h. c #40403F",
"j. c #5B403F",
"k. c gray25",
"l. c #414141",
"z. c #444444",
"x. c #4F4140",
"c. c #4B4544",
"v. c #494948",
"b. c #4B4A49",
"n. c #4E4E4E",
"m. c gray31",
"M. c #524343",
"N. c #574F4F",
"B. c #50504F",
"V. c gray32",
"C. c #545352",
"Z. c #555555",
"A. c #565656",
"S. c #5A5857",
"D. c gray35",
"F. c #5A5A5A",
"G. c gray36",
"H. c #5D5C5C",
"J. c #5D5D5D",
"K. c #5F5F5E",
"L. c #5F5F5F",
"P. c #624343",
"I. c #654141",
"U. c #674444",
"Y. c #664646",
"T. c #694242",
"R. c #694B4A",
"E. c #6D4A4A",
"W. c #695050",
"Q. c #685453",
"!. c #63605F",
"~. c #606060",
"^. c #666463",
"/. c #676767",
"(. c DimGray",
"). c #6A6A6A",
"_. c gray42",
"`. c #777373",
"'. c #777777",
"]. c #7B7373",
"[. c #797979",
"{. c #7B7B7B",
"}. c #7C7A7A",
"|. c gray49",
" X c #8A2524",
".X c #842827",
"XX c #952626",
"oX c #982727",
"OX c #932B2A",
"+X c #9F2828",
"@X c #903232",
"#X c #963434",
"$X c #9B3636",
"%X c #A52929",
"&X c #AA2A2A",
"*X c #B72C2C",
"=X c #BB2D2D",
"-X c #C42E2E",
";X c #C82F2F",
":X c #CE3030",
">X c #D23030",
",X c #D43131",
"<X c #D63131",
"1X c #D83131",
"2X c #DA3232",
"3X c #DC3232",
"4X c #DF3232",
"5X c #E23333",
"6X c #AB5454",
"7X c #AE5D5D",
"8X c #B15A5A",
"9X c #9C6B6B",
"0X c #867D7D",
"qX c #857E7E",
"wX c #847F7F",
"eX c #A86262",
"rX c #818181",
"tX c #828080",
"yX c #838080",
"uX c None",
/* pixels */
"uXuXuXuXuXuXuXuXuXuXuXuXuXuXuXuXuXuXuXuXuXuXuXuXuXuXuXuXuXuXuXuXuXuXuXuXuXuXuXuXuXuXuXuXuX",
"uXuXuXuXuXuXuXuXuXuXuXuXuXuXuXuXuXuXuXuXuXuXuXuXuXuXuXuXuXuXuXuXuXuXuXuXuXuXuXuXuXuXuXuXuX",
"uXuXuXuXuXuXuXuXuXuXuXuXuXuXuXuXuXuXuXuXuXuXuXuXuXuXuXuXuXuXuXuXuXuXuXuXuXuXuXuXuXuXuXuXuX",
"uXuXuXuXuXuXuXuXuXuXuXuXuXuXuXuXuXuXuXuXuXuXuXuXuXuXuXuXuXuXuXuXuXuXuXuXuXuXuXuXuXuXuXuXuX",
"uXuXuXuXuXuXuXuXuX/ x j j ! uXuXuXuXuXuXuXuXuXuXuXuXuXuXuXuXuX) C / ) uXuXuXuXuXuXuXuXuXuX",
"uXuXuXuXuXuXuX[ > e.@X$X#Xi.X C R.uXuXuXuXuXuXuXuXuXuXuXp.S @ z.m.B.k.; @.g.uXuXuXuXuXuXuX",
"uXuXuXuXuXP.> y.:X5X5X5X5X5X3XOXy } uXuXuXuXuXuXuXuXuXn F K.|.rXrXrXrX[.Z.f #.uXuXuXuXuXuX",
"uXuXuXuXj.W %X5X5X5X5X5X5X5X5X5X2X9.k uXuXuXuXuXuXd.+ V.rXrXrXrXrXrXrXrXrX|.h.n uXuXuXuXuX",
"uXuXuXT.y *X5X5X5X5X5X5X5X5X5X5X5X5X9.k uXuXuXuXd.N ~.rXrXrXrXrXrXrXrXrXrXrXrXk.D uXuXuXuX",
"uXuXuX> oX5X5X5X5X5X5X5X5X5X5X5X5X5X5X9. .uXuXuX@ J.rXrXrXrXrXrXrXrXrXrXrXrXrXrXH ,.uXuXuX",
"uXuX+.0.5X5X5X5X5X5X5X5X5X5X5X5X5X5X5X2X6 uXuXn v.rXrXrXrXrXrXrXrXrXrXrXrXrXrXrX_.+ uXuXuX",
"uXuX= :X5X5X5X5X5X5X5X5X5X5X5X5X5X5X5X5X XE R.f rXrXrXrXrXrXrXrXrXrXrXrXrXrXrXrXrXk.,.uXuX",
"uXI.L 5X5X5X5X5X5X5X5X5X5X5X5X5X5X5X5X5X5X. % D.rXrXrXrXrXrXrXrXrXrXrXrXrXrXrXrXrX_.p uXuX",
"uX^ u.5X5X5X5X5X5X5X5X5X5X5X5X5X5X5X5X5X5X3X6XrXrXrXrXrXrXrXrXrXrXrXrXrXrXrXrXrXrXrX. uXuX",
"uXw &X5X5X5X5X5X5X5X5X5X5X5X5X5X5X5X5X5X5X5X7XrXrXrXrXrXrXrXrXrXrXrXrXrXrXrXrXrXrXrXv.! uX",
"uX2 -X5X5X5X5X5X5X5X5X5X5X5X5X5X5X5X5X5X5X5X8XrXrXrXrXrXrXrXrXrXrXrXrXrXrXrXrXrXrXrXD.c uX",
"uX= >X5X5X5X5X5X5X5X5X5X5X5X5X5X5X5X5X5X5X5X8XrXrXrXrXrXrXrXrXrXrXrXrXrXrXrXrXrXrXrX!.l uX",
"uXX 2X5X5X5X5X5X5X5X5X5X5X5X5X5X5X5X5X5X5X5X8XrXrXrXrXrXrXrXrXrXrXrXrXrXrXrXrXrXrXrX^.l uX",
"uX= <X5X5X5X5X5X5X5X5X5X5X5X5X5X5X5X5X5X5X5X8XrXrXrXrXrXrXrXrXrXrXrXrXrXrXrXrXrXrXrXQ.g uX",
"uX5 =X5X5X5X5X5X5X5X5X5X5X5X5X5X5X5X5X5X5X5X8XrXrXrXrXrXrXrXrXrXrXrXrXrXrXrXrXrXrXrXN.D uX",
"uXU XX5X5X5X5X5X5X5X5X5X5X5X5X5X5X5X5X5X5X5X7XrXrXrXrXrXrXrXrXrXrXrXrXrXrXrXrXrXrXqX` uXuX",
"uXa.U 5X5X5X5X5X5X5X5X5X5X5X5X5X5X5X5X5X5X5XeXrXrXrXrXrXrXrXrXrXrXrXrXrXrXrXrXrXrXQ.q uXuX",
"uXuX2 +X5X5X5X5X5X5X5X5X5X5X5X5X5X5X5X5X5X5X9XrXrXrXrXrXrXrXrXrXrXrXrXrXrXrXrXrXqXc uXuXuX",
"uXuXU.R <X5X5X5X5X5X5X5X5X5X5X5X5X5X5X5X5X5X7XyXrXrXrXrXrXrXrXrXrXrXrXrXrXrXrXrX;.K uXuXuX",
"uXuXuX .3.rXrXrXrXrXrXrXrXrXrXrXrXrXrXrXrXrXrXrXrXrXrXrXrXrXrXrXrXrXrXrXrXrXrXM.4 uXuXuXuX",
"uXuXuXuX/ 3.|.rXrXrXrXrXrXrXrXrXrXrXrXrXrXrXrXrXrXrXrXrXrXrXrXrXrXrXrXrXrXqXx.2 uXuXuXuXuX",
"uXuXuXuXuX[ ../.rXrXrXrXrXrXrXrXrXrXrXrXrXrXrXrXrXrXrXrXrXrXrXrXrXrXrXrX}.&.t uXuXuXuXuXuX",
"uXuXuXuXuXuX1.+ .XrXrXrXrXrXrXrXrXrXrXrXrXrXrXrXrXrXrXrXrXrXrXrXrXrXrXH.n { uXuXuXuXuXuXuX",
"uXuXuXuXuXuXuXuXc o._.rXrXrXrXrXrXrXrXrXrXrXrXrXrXrXrXrXrXrXrXrXrX'.-.i s.uXuXuXuXuXuXuXuX",
"uXuXuXuXuXuXuXuXuX1.> r.rXrXrXrXrXrXrXrXrXrXrXrXrXrXrXrXrXrXrXrXC.i $.uXuXuXuXuXuXuXuXuXuX",
"uXuXuXuXuXuXuXuXuXuXuX' e D.rXrXrXrXrXrXrXrXrXrXrXrXrXrXrXrX_.G B uXuXuXuXuXuXuXuXuXuXuXuX",
"uXuXuXuXuXuXuXuXuXuXuXuXI.t 3.'.rXrXrXrXrXrXrXrXrXrXrXrXrXV.+ ,.uXuXuXuXuXuXuXuXuXuXuXuXuX",
"uXuXuXuXuXuXuXuXuXuXuXuXuXuXO.R K.rXrXrXrXrXrXrXrXrXrXrX-.p uXuXuXuXuXuXuXuXuXuXuXuXuXuXuX",
"uXuXuXuXuXuXuXuXuXuXuXuXuXuXuXU.% N.rXrXrXrXrXrXrXrX[.*.C uXuXuXuXuXuXuXuXuXuXuXuXuXuXuXuX",
"uXuXuXuXuXuXuXuXuXuXuXuXuXuXuXuXuX4 e.rXrXrXrXrXtX'.%.[ uXuXuXuXuXuXuXuXuXuXuXuXuXuXuXuXuX",
"uXuXuXuXuXuXuXuXuXuXuXuXuXuXuXuXuXuX3 q.rXrXrXrX].3.X.uXuXuXuXuXuXuXuXuXuXuXuXuXuXuXuXuXuX",
"uXuXuXuXuXuXuXuXuXuXuXuXuXuXuXuXuXuXuX3 t.rXrXqX7.T uXuXuXuXuXuXuXuXuXuXuXuXuXuXuXuXuXuXuX",
"uXuXuXuXuXuXuXuXuXuXuXuXuXuXuXuXuXuXuXuX> Z.tX9.Y uXuXuXuXuXuXuXuXuXuXuXuXuXuXuXuXuXuXuXuX",
"uXuXuXuXuXuXuXuXuXuXuXuXuXuXuXuXuXuXuXuXE.7 c.q uXuXuXuXuXuXuXuXuXuXuXuXuXuXuXuXuXuXuXuXuX",
"uXuXuXuXuXuXuXuXuXuXuXuXuXuXuXuXuXuXuXuXuXQ - uXuXuXuXuXuXuXuXuXuXuXuXuXuXuXuXuXuXuXuXuXuX",
"uXuXuXuXuXuXuXuXuXuXuXuXuXuXuXuXuXuXuXuXuXuX<.uXuXuXuXuXuXuXuXuXuXuXuXuXuXuXuXuXuXuXuXuXuX",
"uXuXuXuXuXuXuXuXuXuXuXuXuXuXuXuXuXuXuXuXuXuXuXuXuXuXuXuXuXuXuXuXuXuXuXuXuXuXuXuXuXuXuXuXuX",
"uXuXuXuXuXuXuXuXuXuXuXuXuXuXuXuXuXuXuXuXuXuXuXuXuXuXuXuXuXuXuXuXuXuXuXuXuXuXuXuXuXuXuXuXuX",
"uXuXuXuXuXuXuXuXuXuXuXuXuXuXuXuXuXuXuXuXuXuXuXuXuXuXuXuXuXuXuXuXuXuXuXuXuXuXuXuXuXuXuXuXuX",
"uXuXuXuXuXuXuXuXuXuXuXuXuXuXuXuXuXuXuXuXuXuXuXuXuXuXuXuXuXuXuXuXuXuXuXuXuXuXuXuXuXuXuXuXuX"
};
