/* XPM */
static char *_501790352194[] = {
/* columns rows colors chars-per-pixel */
"45 45 223 2 ",
"   c #111110",
".  c #141211",
"X  c #161212",
"o  c #161312",
"O  c #141413",
"+  c #151413",
"@  c #151514",
"#  c #161514",
"$  c #181312",
"%  c #191615",
"&  c #1C1514",
"*  c #1D1514",
"=  c #1C1615",
"-  c #1F1615",
";  c #191918",
":  c #201515",
">  c #201615",
",  c #211615",
"<  c #201716",
"1  c #271918",
"2  c #271919",
"3  c #271D1C",
"4  c #291B1A",
"5  c #2E1B1A",
"6  c #301A19",
"7  c #361B1A",
"8  c #351D1C",
"9  c #361D1C",
"0  c #341F1E",
"q  c #351F1E",
"w  c #3B1C1B",
"e  c #3C1F1E",
"r  c #2B201F",
"t  c #39201F",
"y  c #3A201F",
"u  c #292221",
"i  c #282323",
"p  c #2B2322",
"a  c #2B2524",
"s  c #2F2524",
"d  c #292928",
"f  c #2B2B2A",
"g  c #2E2E2D",
"h  c #302221",
"j  c #332322",
"k  c #352423",
"l  c #322726",
"z  c #322727",
"x  c #362424",
"c  c #382423",
"v  c #3B2524",
"b  c #382727",
"n  c #312828",
"m  c #322928",
"M  c #332928",
"N  c #332B2A",
"B  c #362A29",
"V  c #3D2928",
"C  c #3E2928",
"Z  c #3F2928",
"A  c #3F2929",
"S  c #382C2B",
"D  c #392C2C",
"F  c #353535",
"G  c #3F3B3B",
"H  c #3C3C3B",
"J  c #3F3F3F",
"K  c #421E1E",
"L  c #451F1E",
"P  c #461F1E",
"I  c #471F1F",
"U  c #4A1F1E",
"Y  c #4C201F",
"T  c #56201F",
"R  c #412020",
"E  c #412120",
"W  c #442424",
"Q  c #4A2625",
"!  c #402827",
"~  c #412827",
"^  c #4E2827",
"/  c #422928",
"(  c #442928",
")  c #442B2A",
"_  c #452B2A",
"`  c #452F2E",
"'  c #482B2A",
"]  c #4D2929",
"[  c #4E2A29",
"{  c #4E2B2A",
"}  c #4B2D2D",
"|  c #4C2D2D",
" . c #4E2D2D",
".. c #562121",
"X. c #562525",
"o. c #582323",
"O. c #512F2E",
"+. c #572C2C",
"@. c #41302F",
"#. c #493433",
"$. c #4E3737",
"%. c #483837",
"&. c #463A39",
"*. c #423D3C",
"=. c #413E3D",
"-. c #403F3E",
";. c #4D3B3A",
":. c #573938",
">. c #5B3A39",
",. c #5A3B3A",
"<. c #5E3938",
"1. c #5C3D3C",
"2. c #5E3D3D",
"3. c #632221",
"4. c #632222",
"5. c #622322",
"6. c #632322",
"7. c #652020",
"8. c #642121",
"9. c #652323",
"0. c #672424",
"q. c #6B2524",
"w. c #6E2525",
"e. c #6F2727",
"r. c #732323",
"t. c #742323",
"y. c #742524",
"u. c #7F2827",
"i. c #7C2929",
"p. c #613B3B",
"a. c #643939",
"s. c #673C3B",
"d. c #643D3C",
"f. c #673E3D",
"g. c #6C3F3E",
"h. c #40403F",
"j. c #5B403F",
"k. c gray25",
"l. c #414141",
"z. c #444444",
"x. c #4F4140",
"c. c #4B4544",
"v. c #494948",
"b. c #4B4A49",
"n. c gray31",
"m. c #524343",
"M. c #574F4F",
"N. c #50504F",
"B. c gray32",
"V. c #545352",
"C. c #565656",
"Z. c #5A5857",
"A. c gray35",
"S. c gray36",
"D. c #5D5C5C",
"F. c #5F5F5E",
"G. c #5F5F5F",
"H. c #624343",
"J. c #654141",
"K. c #674444",
"L. c #664646",
"P. c #694242",
"I. c #694B4A",
"U. c #6D4A4A",
"Y. c #695050",
"T. c #685453",
"R. c #63605F",
"E. c #606060",
"W. c #666463",
"Q. c DimGray",
"!. c #6A6A6A",
"~. c gray42",
"^. c #777373",
"/. c #777777",
"(. c #7B7373",
"). c #797979",
"_. c #7B7B7B",
"`. c #7C7A7A",
"'. c gray49",
"]. c #832423",
"[. c #8A2524",
"{. c #842827",
"}. c #902625",
"|. c #952626",
" X c #982727",
".X c #992727",
"XX c #932B2A",
"oX c #9F2828",
"OX c #903232",
"+X c #963434",
"@X c #9B3636",
"#X c #A02828",
"$X c #A52929",
"%X c #AA2A2A",
"&X c #B22B2B",
"*X c #B52C2B",
"=X c #B72C2C",
"-X c #BB2D2D",
";X c #C42E2E",
":X c #C82F2F",
">X c #CE3030",
",X c #D03030",
"<X c #D23030",
"1X c #D43131",
"2X c #D63131",
"3X c #D83131",
"4X c #DA3232",
"5X c #DB3232",
"6X c #DC3232",
"7X c #DF3232",
"8X c #E23333",
"9X c #AB5454",
"0X c #AE5D5D",
"qX c #B15A5A",
"wX c #9C6B6B",
"eX c #867D7D",
"rX c #857E7E",
"tX c #847F7F",
"yX c #A86262",
"uX c #818181",
"iX c #828080",
"pX c #838080",
"aX c None",
/* pixels */
"aXaXaXaXaXaXaXaXaXaXaXaXaXaXaXaXaXaXaXaXaXaXaXaXaXaXaXaXaXaXaXaXaXaXaXaXaXaXaXaXaXaXaXaXaX",
"aXaXaXaXaXaXaXaXaXaXaXaXaXaXaXaXaXaXaXaXaXaXaXaXaXaXaXaXaXaXaXaXaXaXaXaXaXaXaXaXaXaXaXaXaX",
"aXaXaXaXaXaXaXaXaXaXaXaXaXaXaXaXaXaXaXaXaXaXaXaXaXaXaXaXaXaXaXaXaXaXaXaXaXaXaXaXaXaXaXaXaX",
"aXaXaXaXaXaXaXaXaXaXaXaXaXaXaXaXaXaXaXaXaXaXaXaXaXaXaXaXaXaXaXaXaXaXaXaXaXaXaXaXaXaXaXaXaX",
"aXaXaXaXaXaXaXaXaX/ x j j ! aXaXaXaXaXaXaXaXaXaXaXaXaXaXaXaXaX) C / ) aXaXaXaXaXaXaXaXaXaX",
"aXaXaXaXaXaXaX[ > e.OX@X+Xi.X C I.aXaXaXaXaXaXaXaXaXaXaXp.S @ z.n.N.k.; @.g.aXaXaXaXaXaXaX",
"aXaXaXaXaXH.> y.>X8X8X8X8X8X6XXXy } aXaXaXaXaXaXaXaXaXn F F.'.uXuXuX'._.C.f #.aXaXaXaXaXaX",
"aXaXaXaXj.W $X8X8X8X8X8X8X8X8X8X5X6.k aXaXaXaXaXaXd.+ B.uXuXuXuXuXuXuXuXuX'.J M aXaXaXaXaX",
"aXaXaXP.y =X8X8X8X8X8X8X8X8X8X8X8X8X6.x aXaXaXaXd.N E.uXuXuXuXuXuXuXuXuXuXuXuX-.D aXaXaXaX",
"aXaXaX>  X8X8X8X8X8X8X8X8X8X8X8X8X8X8X6.O.aXaXaX@ S.uXuXuXuXuXuXuXuXuXuXuXuXuXuXH ,.aXaXaX",
"aXaX+.0.8X8X8X8X8X8X8X8X8X8X8X8X8X8X8X1X5 aXaXn v.uXuXuXuXuXuXuXuXuXuXuXuXuXuXuX!.@ aXaXaX",
"aXaX= >X8X8X8X8X8X8X8X8X8X8X8X8X8X8X8X7X[.Y I.f uXuXuXuXuXuXuXuXuXuXuXuXuXuXuXuXuXk.,.aXaX",
"aXJ.L 8X8X8X8X8X8X8X8X8X8X8X8X8X8X8X8X8X8XX % A.uXuXuXuXuXuXuXuXuXuXuXuXuXuXuXuXuX!.s aXaX",
"aX^ u.8X8X8X8X8X8X8X8X8X8X8X8X8X8X8X8X8X8X6X9XuXuXuXuXuXuXuXuXuXuXuXuXuXuXuXuXuXuXuXO aXaX",
"aXw %X8X8X8X8X8X8X8X8X8X8X8X8X8X8X8X8X8X8X8X0XuXuXuXuXuXuXuXuXuXuXuXuXuXuXuXuXuXuXuXv.! aX",
"aX2 ;X8X8X8X8X8X8X8X8X8X8X8X8X8X8X8X8X8X8X8XqXuXuXuXuXuXuXuXuXuXuXuXuXuXuXuXuXuXuXuXZ.b aX",
"aX= <X8X8X8X8X8X8X8X8X8X8X8X8X8X8X8X8X8X8X8XqXuXuXuXuXuXuXuXuXuXuXuXuXuXuXuXuXuXuXuXR.l aX",
"aX$ 5X8X8X8X8X8X8X8X8X8X8X8X8X8X8X8X8X8X8X8XqXuXuXuXuXuXuXuXuXuXuXuXuXuXuXuXuXuXuXuXW.s aX",
"aX= <X8X8X8X8X8X8X8X8X8X8X8X8X8X8X8X8X8X8X8XqXuXuXuXuXuXuXuXuXuXuXuXuXuXuXuXuXuXuXuXR.l aX",
"aX5 -X8X8X8X8X8X8X8X8X8X8X8X8X8X8X8X8X8X8X8XqXuXuXuXuXuXuXuXuXuXuXuXuXuXuXuXuXuXuXuXM.C aX",
"aXL |.8X8X8X8X8X8X8X8X8X8X8X8X8X8X8X8X8X8X8X0XuXuXuXuXuXuXuXuXuXuXuXuXuXuXuXuXuXuXiX` aXaX",
"aXa.U 8X8X8X8X8X8X8X8X8X8X8X8X8X8X8X8X8X8X8XyXuXuXuXuXuXuXuXuXuXuXuXuXuXuXuXuXuXuXT.9 aXaX",
"aXaX4 oX8X8X8X8X8X8X8X8X8X8X8X8X8X8X8X8X8X8XwXuXuXuXuXuXuXuXuXuXuXuXuXuXuXuXuXuXrXc aXaXaX",
"aXaXK.K 5X8X8X8X8X8X8X8X8X8X8X8X8X8X8X8X8X8X0XuXuXuXuXuXuXuXuXuXuXuXuXuXuXuXuXpX;.K aXaXaX",
"aXaXaX| 6.8X8X8X8X8X8X8X8X8X8X8X8X8X8X8X8X8XuXuXuXuXuXuXuXuXuXuXuXuXuXuXuXuXuXm.2 aXaXaXaX",
"aXaXaXaX) 6.5X8X8X8X8X8X8X8X8X8X8X8X8X8X8X8XuXuXuXuXuXuXuXuXuXuXuXuXuXuXuXtXx.2 aXaXaXaXaX",
"aXaXaXaXaX[ T &X8X8X8X8X8X8X8X8X8X8X8X8X8X8XuXuXuXuXuXuXuXuXuXuXuXuXuXuX_.&.t aXaXaXaXaXaX",
"aXaXaXaXaXaX2.X {.8X8X8X8X8X8X8X8X8X8X8X8X8XuXuXuXuXuXuXuXuXuXuXuXuXuXS.n { aXaXaXaXaXaXaX",
"aXaXaXaXaXaXaXaXc o.*X8X8X8X8X8X8X8X8X8X8X8XuXuXuXuXuXuXuXuXuXuXuX/.-.p s.aXaXaXaXaXaXaXaX",
"aXaXaXaXaXaXaXaXaX2.> t.8X8X8X8X8X8X8X8X8X8XuXuXuXuXuXuXuXuXuXuXB.p $.aXaXaXaXaXaXaXaXaXaX",
"aXaXaXaXaXaXaXaXaXaXaX' e  X8X8X8X8X8X8X8X8XuXuXuXuXuXuXuXuX~.*.B aXaXaXaXaXaXaXaXaXaXaXaX",
"aXaXaXaXaXaXaXaXaXaXaXaXP.9 9.:X8X8X8X8X8X8XuXuXuXuXuXuXuXB.O ,.aXaXaXaXaXaXaXaXaXaXaXaXaX",
"aXaXaXaXaXaXaXaXaXaXaXaXaXaXO.E #X8X8X8X8X8XuXuXuXuXuXuXJ p aXaXaXaXaXaXaXaXaXaXaXaXaXaXaX",
"aXaXaXaXaXaXaXaXaXaXaXaXaXaXaXK.= ].8X8X8X8XuXuXuXuX`.*./ aXaXaXaXaXaXaXaXaXaXaXaXaXaXaXaX",
"aXaXaXaXaXaXaXaXaXaXaXaXaXaXaXaXaX4 e.8X8X8XuXuXuX^.%.[ aXaXaXaXaXaXaXaXaXaXaXaXaXaXaXaXaX",
"aXaXaXaXaXaXaXaXaXaXaXaXaXaXaXaXaXaX3 e.8X8XuXuX(.6.X.aXaXaXaXaXaXaXaXaXaXaXaXaXaXaXaXaXaX",
"aXaXaXaXaXaXaXaXaXaXaXaXaXaXaXaXaXaXaX3 t.8XuXrX9.T aXaXaXaXaXaXaXaXaXaXaXaXaXaXaXaXaXaXaX",
"aXaXaXaXaXaXaXaXaXaXaXaXaXaXaXaXaXaXaXaX> }.pX9.U aXaXaXaXaXaXaXaXaXaXaXaXaXaXaXaXaXaXaXaX",
"aXaXaXaXaXaXaXaXaXaXaXaXaXaXaXaXaXaXaXaXU.7 c.9 aXaXaXaXaXaXaXaXaXaXaXaXaXaXaXaXaXaXaXaXaX",
"aXaXaXaXaXaXaXaXaXaXaXaXaXaXaXaXaXaXaXaXaXQ = aXaXaXaXaXaXaXaXaXaXaXaXaXaXaXaXaXaXaXaXaXaX",
"aXaXaXaXaXaXaXaXaXaXaXaXaXaXaXaXaXaXaXaXaXaX<.aXaXaXaXaXaXaXaXaXaXaXaXaXaXaXaXaXaXaXaXaXaX",
"aXaXaXaXaXaXaXaXaXaXaXaXaXaXaXaXaXaXaXaXaXaXaXaXaXaXaXaXaXaXaXaXaXaXaXaXaXaXaXaXaXaXaXaXaX",
"aXaXaXaXaXaXaXaXaXaXaXaXaXaXaXaXaXaXaXaXaXaXaXaXaXaXaXaXaXaXaXaXaXaXaXaXaXaXaXaXaXaXaXaXaX",
"aXaXaXaXaXaXaXaXaXaXaXaXaXaXaXaXaXaXaXaXaXaXaXaXaXaXaXaXaXaXaXaXaXaXaXaXaXaXaXaXaXaXaXaXaX",
"aXaXaXaXaXaXaXaXaXaXaXaXaXaXaXaXaXaXaXaXaXaXaXaXaXaXaXaXaXaXaXaXaXaXaXaXaXaXaXaXaXaXaXaXaX"
};
