/* XPM */
static char *_501790355911[] = {
/* columns rows colors chars-per-pixel */
"45 45 211 2 ",
"   c #111110",
".  c #141211",
"X  c #161212",
"o  c #161312",
"O  c #151413",
"+  c #151514",
"@  c #161514",
"#  c #181312",
"$  c #191615",
"%  c #1C1514",
"&  c #1D1514",
"*  c #1C1615",
"=  c #1F1615",
"-  c #191918",
";  c #201515",
":  c #201615",
">  c #211615",
",  c #201716",
"<  c #291817",
"1  c #271918",
"2  c #271919",
"3  c #271D1C",
"4  c #291B1A",
"5  c #2E1B1A",
"6  c #2D1D1C",
"7  c #2F1D1C",
"8  c #301A19",
"9  c #311B1B",
"0  c #361B1A",
"q  c #341F1E",
"w  c #3B1C1B",
"e  c #3C1F1E",
"r  c #2B201F",
"t  c #39201F",
"y  c #3A201F",
"u  c #2F2322",
"i  c #2B2524",
"p  c #2F2726",
"a  c #292928",
"s  c #2B2B2A",
"d  c #2E2E2D",
"f  c gray18",
"g  c #332121",
"h  c #302221",
"j  c #332322",
"k  c #352423",
"l  c #322424",
"z  c #332524",
"x  c #362424",
"c  c #382423",
"v  c #392423",
"b  c #382726",
"n  c #312828",
"m  c #322928",
"M  c #332928",
"N  c #3D2928",
"B  c #3E2928",
"V  c #3F2929",
"C  c #382C2B",
"Z  c #392C2C",
"A  c #3B2D2D",
"S  c #353535",
"D  c #393938",
"F  c #3C3C3B",
"G  c #3F3F3F",
"H  c #451F1E",
"J  c #461F1E",
"K  c #471F1F",
"L  c #4A1F1E",
"P  c #412020",
"I  c #402120",
"U  c #412120",
"Y  c #442424",
"T  c #4A2625",
"R  c #402827",
"E  c #4E2827",
"W  c #422928",
"Q  c #422A29",
"!  c #442928",
"~  c #442B2A",
"^  c #452B2A",
"/  c #482A29",
"(  c #482B2A",
")  c #4D2929",
"_  c #4E2A29",
"`  c #4E2A2A",
"'  c #4B2D2D",
"]  c #4C2D2D",
"[  c #4E2D2D",
"{  c #4D2E2D",
"}  c #562121",
"|  c #582323",
" . c #5C2423",
".. c #532B2A",
"X. c #542A2A",
"o. c #512E2E",
"O. c #512F2E",
"+. c #572C2C",
"@. c #41302F",
"#. c #493433",
"$. c #513737",
"%. c #573938",
"&. c #5B3A39",
"*. c #5A3C3C",
"=. c #5C3D3C",
"-. c #5E3D3D",
";. c #5D3E3E",
":. c #632221",
">. c #632222",
",. c #622322",
"<. c #632322",
"1. c #652120",
"2. c #642121",
"3. c #652323",
"4. c #672424",
"5. c #6B2524",
"6. c #6E2525",
"7. c #6F2727",
"8. c #732323",
"9. c #772221",
"0. c #742323",
"q. c #742524",
"w. c #7B2222",
"e. c #7F2827",
"r. c #7C2929",
"t. c #613B3B",
"y. c #643939",
"u. c #643D3C",
"i. c #673D3D",
"p. c #673E3D",
"a. c #6C3F3E",
"s. c #40403F",
"d. c #5B403F",
"f. c gray25",
"g. c #414141",
"h. c #444444",
"j. c #494948",
"k. c gray29",
"l. c gray31",
"z. c #50504F",
"x. c gray32",
"c. c #565656",
"v. c gray35",
"b. c gray36",
"n. c #5D5D5C",
"m. c #5F5F5E",
"M. c #5F5F5F",
"N. c #624343",
"B. c #654141",
"V. c #674141",
"C. c #674444",
"Z. c #664646",
"A. c #694242",
"S. c #694B4A",
"D. c #6D4A4A",
"F. c #6E4D4D",
"G. c #695050",
"H. c #606060",
"J. c gray38",
"K. c #646464",
"L. c DimGray",
"P. c #6A6A6A",
"I. c #797979",
"U. c gray49",
"Y. c #832423",
"T. c #8A2524",
"R. c #8B2524",
"E. c #842827",
"W. c #882928",
"Q. c #902625",
"!. c #952626",
"~. c #982727",
"^. c #992727",
"/. c #932B2A",
"(. c #9E2828",
"). c #9F2828",
"_. c #903232",
"`. c #963434",
"'. c #9B3636",
"]. c #A02828",
"[. c #A52929",
"{. c #AA2A2A",
"}. c #B22B2B",
"|. c #B52C2B",
" X c #B72C2C",
".X c #B92C2C",
"XX c #BB2D2D",
"oX c #C42E2E",
"OX c #C82F2F",
"+X c #CC2F2F",
"@X c #CE3030",
"#X c #CF3030",
"$X c #D03030",
"%X c #D23030",
"&X c #D43131",
"*X c #D63131",
"=X c #D73131",
"-X c #D83131",
";X c #DA3232",
":X c #DB3232",
">X c #DC3232",
",X c #DF3232",
"<X c #E13333",
"1X c #E23333",
"2X c #AB5454",
"3X c #B15A5A",
"4X c #B25A5A",
"5X c #A96161",
"6X c #CA4747",
"7X c #818181",
"8X c None",
/* pixels */
"8X8X8X8X8X8X8X8X8X8X8X8X8X8X8X8X8X8X8X8X8X8X8X8X8X8X8X8X8X8X8X8X8X8X8X8X8X8X8X8X8X8X8X8X8X",
"8X8X8X8X8X8X8X8X8X8X8X8X8X8X8X8X8X8X8X8X8X8X8X8X8X8X8X8X8X8X8X8X8X8X8X8X8X8X8X8X8X8X8X8X8X",
"8X8X8X8X8X8X8X8X8X8X8X8X8X8X8X8X8X8X8X8X8X8X8X8X8X8X8X8X8X8X8X8X8X8X8X8X8X8X8X8X8X8X8X8X8X",
"8X8X8X8X8X8X8X8X8X8X8X8X8X8X8X8X8X8X8X8X8X8X8X8X8X8X8X8X8X8X8X8X8X8X8X8X8X8X8X8X8X8X8X8X8X",
"8X8X8X8X8X8X8X8X8XQ x j j R 8X8X8X8X8X8X8X8X8X8X8X8X8X8X8X8X8X~ B B ^ 8X8X8X8X8X8X8X8X8X8X",
"8X8X8X8X8X8X8X_ : 7._.'.`.r.X B S.8X8X8X8X8X8X8X8X8X8X8Xt.C + h.z.z.f.- @.a.8X8X8X8X8X8X8X",
"8X8X8X8X8XN.: q.@X1X1X1X1X1X>X/.y ' 8X8X8X8X8X8X8X8X8Xn S m.U.7X7X7X7XI.c.a #.8X8X8X8X8X8X",
"8X8X8X8Xd.Y [.1X1X1X1X1X1X1X1X1X:X<.k 8X8X8X8X8X8Xu.O x.7X7X7X7X7X7X7X7X7XU.f.n 8X8X8X8X8X",
"8X8X8XA.y  X1X1X1X1X1X1X1X1X1X1X1X1X3.k 8X8X8X8Xu.m M.7X7X7X7X7X7X7X7X7X7X7X7Xf.A 8X8X8X8X",
"8X8X8X: ~.1X1X1X1X1X1X1X1X1X1X1X1X1X1X<.{ 8X8X8X+ M.7X7X7X7X7X7X7X7X7X7X7X7X7X7XF *.8X8X8X",
"8X8X+.4.1X1X1X1X1X1X1X1X1X1X1X1X1X1X1X*X9 8X8Xn j.7X7X7X7X7X7X7X7X7X7X7X7X7X7X7XP.O 8X8X8X",
"8X8X* @X1X1X1X1X1X1X1X1X1X1X1X1X1X1X1X1XT.J G.s 7X7X7X7X7X7X7X7X7X7X7X7X7X7X7X7X7Xf.%.8X8X",
"8XB.H 1X1X1X1X1X1X1X1X1X1X1X1X1X1X1X1X1X<X. $ v.7X7X7X7X7X7X7X7X7X7X7X7X7X7X7X7X7XP.i 8X8X",
"8XE e.1X1X1X1X1X1X1X1X1X1X1X1X1X1X1X1X1X<X,X2X7X7X7X7X7X7X7X7X7X7X7X7X7X7X7X7X7X7X7X. 8X8X",
"8Xw {.1X1X1X1X1X1X1X1X1X1X1X1X1X1X1X1X1X<X<X3X7X7X7X7X7X7X7X7X7X7X7X7X7X7X7X7X7X7X7Xj.Q 8X",
"8X2 oX1X1X1X1X1X1X1X1X1X1X1X1X1X1X1X1X1X<X<X3X7X7X7X7X7X7X7X7X7X7X7X7X7X7X7X7X7X7X7Xv.x 8X",
"8X* $X1X1X1X1X1X1X1X1X1X1X1X1X1X1X1X1X1X1X1X3X7X7X7X7X7X7X7X7X7X7X7X7X7X7X7X7X7X7X7XJ.l 8X",
"8XX :X1X1X1X1X1X1X1X1X1X1X1X1X1X1X1X1X1X1X1X3X7X7X7X7X7X7X7X7X7X7X7X7X7X7X7X7X7X7X7XK.u 8X",
"8X* *X1X1X1X1X1X1X1X1X1X1X1X1X1X1X1X1X1X1X1X3X7X7X7X7X7X7X7X7X7X7X7X7X7X7X7X7X7X7X7XJ.z 8X",
"8X5 .X1X1X1X1X1X1X1X1X1X1X1X1X1X1X1X1X1X1X1X3X7X7X7X7X7X7X7X7X7X7X7X7X7X7X7X7X7X7X7Xx.N 8X",
"8XH !.1X1X1X1X1X1X1X1X1X1X1X1X1X1X1X1X1X1X1X3X7X7X7X7X7X7X7X7X7X7X7X7X7X7X7X7X7X7X7XD 8X8X",
"8Xy.L 1X1X1X1X1X1X1X1X1X1X1X1X1X1X1X1X1X1X1X3X7X7X7X7X7X7X7X7X7X7X7X7X7X7X7X7X7X7Xn.l 8X8X",
"8X8X4 ).1X1X1X1X1X1X1X1X1X1X1X1X1X1X1X1X1X1X5X7X7X7X7X7X7X7X7X7X7X7X7X7X7X7X7X7X7Xd u.8X8X",
"8X8XC.H :X1X1X1X1X1X1X1X1X1X1X1X1X1X1X1X1X1X6X3X3X3X3X3X3X3X3X3X3X3X3X3X3X3X3X3X$.A 8X8X8X",
"8X8X8X{ <.1X1X1X1X1X1X1X1X1X1X1X1X1X1X1X1X1X1X1X1X1X1X1X1X1X1X1X1X1X1X1X1X1X1Xw.< 8X8X8X8X",
"8X8X8X8XQ <.:X1X1X1X1X1X1X1X1X1X1X1X1X1X1X1X1X1X1X1X1X1X1X1X1X1X1X1X1X1X1X1X8.< 8X8X8X8X8X",
"8X8X8X8X8X_ } }.1X1X1X1X1X1X1X1X1X1X1X1X1X1X1X1X1X1X1X1X1X1X1X1X1X1X1X1X*X<.j 8X8X8X8X8X8X",
"8X8X8X8X8X8X=.X E.1X1X1X1X1X1X1X1X1X1X1X1X1X1X1X1X1X1X1X1X1X1X1X1X1X1X(.U { 8X8X8X8X8X8X8X",
"8X8X8X8X8X8X8X8Xv | |.1X1X1X1X1X1X1X1X1X1X1X1X1X1X1X1X1X1X1X1X1X1X$X3.6 B.8X8X8X8X8X8X8X8X",
"8X8X8X8X8X8X8X8X8X=.: 0.1X1X1X1X1X1X1X1X1X1X1X1X1X1X1X1X1X1X1X1XW.9 O.8X8X8X8X8X8X8X8X8X8X",
"8X8X8X8X8X8X8X8X8X8X8X( e ~.1X1X1X1X1X1X1X1X1X1X1X1X1X1X1X1X.X .v F.8X8X8X8X8X8X8X8X8X8X8X",
"8X8X8X8X8X8X8X8X8X8X8X8XA.q <.$X1X1X1X1X1X1X1X1X1X1X1X1X1XR.X *.8X8X8X8X8X8X8X8X8X8X8X8X8X",
"8X8X8X8X8X8X8X8X8X8X8X8X8X8XO.U ].1X1X1X1X1X1X1X1X1X1X1X3.7 8X8X8X8X8X8X8X8X8X8X8X8X8X8X8X",
"8X8X8X8X8X8X8X8X8X8X8X8X8X8X8XZ.* Y.1X1X1X1X1X1X1X1X*X3.R 8X8X8X8X8X8X8X8X8X8X8X8X8X8X8X8X",
"8X8X8X8X8X8X8X8X8X8X8X8X8X8X8X8X8X4 7.1X1X1X1X1X1X+X3._ 8X8X8X8X8X8X8X8X8X8X8X8X8X8X8X8X8X",
"8X8X8X8X8X8X8X8X8X8X8X8X8X8X8X8X8X8X3 7.1X1X1X1X+X1.X.8X8X8X8X8X8X8X8X8X8X8X8X8X8X8X8X8X8X",
"8X8X8X8X8X8X8X8X8X8X8X8X8X8X8X8X8X8X8X3 0.1X1X>X3.X.8X8X8X8X8X8X8X8X8X8X8X8X8X8X8X8X8X8X8X",
"8X8X8X8X8X8X8X8X8X8X8X8X8X8X8X8X8X8X8X8X: Q.1X<.( 8X8X8X8X8X8X8X8X8X8X8X8X8X8X8X8X8X8X8X8X",
"8X8X8X8X8X8X8X8X8X8X8X8X8X8X8X8X8X8X8X8XD.0 w.j 8X8X8X8X8X8X8X8X8X8X8X8X8X8X8X8X8X8X8X8X8X",
"8X8X8X8X8X8X8X8X8X8X8X8X8X8X8X8X8X8X8X8X8XT : 8X8X8X8X8X8X8X8X8X8X8X8X8X8X8X8X8X8X8X8X8X8X",
"8X8X8X8X8X8X8X8X8X8X8X8X8X8X8X8X8X8X8X8X8X8X=.8X8X8X8X8X8X8X8X8X8X8X8X8X8X8X8X8X8X8X8X8X8X",
"8X8X8X8X8X8X8X8X8X8X8X8X8X8X8X8X8X8X8X8X8X8X8X8X8X8X8X8X8X8X8X8X8X8X8X8X8X8X8X8X8X8X8X8X8X",
"8X8X8X8X8X8X8X8X8X8X8X8X8X8X8X8X8X8X8X8X8X8X8X8X8X8X8X8X8X8X8X8X8X8X8X8X8X8X8X8X8X8X8X8X8X",
"8X8X8X8X8X8X8X8X8X8X8X8X8X8X8X8X8X8X8X8X8X8X8X8X8X8X8X8X8X8X8X8X8X8X8X8X8X8X8X8X8X8X8X8X8X",
"8X8X8X8X8X8X8X8X8X8X8X8X8X8X8X8X8X8X8X8X8X8X8X8X8X8X8X8X8X8X8X8X8X8X8X8X8X8X8X8X8X8X8X8X8X"
};
