/* XPM */
static char *_501790359615[] = {
/* columns rows colors chars-per-pixel */
"45 45 124 2 ",
"   c #121110",
".  c #141211",
"X  c #171211",
"o  c #181211",
"O  c #191211",
"+  c #1C1312",
"@  c #1E1312",
"#  c #1F1312",
"$  c #201312",
"%  c #211413",
"&  c #231413",
"*  c #241413",
"=  c #2A1514",
"-  c #2B1514",
";  c #2E1615",
":  c #301615",
">  c #311615",
",  c #321615",
"<  c #331616",
"1  c #331716",
"2  c #341716",
"3  c #361716",
"4  c #371716",
"5  c #381716",
"6  c #391817",
"7  c #3A1817",
"8  c #3B1817",
"9  c #3C1817",
"0  c #3D1817",
"q  c #3E1818",
"w  c #3F1818",
"e  c #411918",
"r  c #421918",
"t  c #431918",
"y  c #451919",
"u  c #461A19",
"i  c #471A19",
"p  c #481A19",
"a  c #491A19",
"s  c #4A1A19",
"d  c #4A1A1A",
"f  c #4B1A1A",
"g  c #4E1B1A",
"h  c #4F1B1A",
"j  c #511B1B",
"k  c #521C1B",
"l  c #531C1B",
"z  c #541C1B",
"x  c #551C1B",
"c  c #571C1C",
"v  c #581D1C",
"b  c #5A1D1C",
"n  c #5C1D1C",
"m  c #5D1D1D",
"M  c #5F1E1D",
"N  c #611E1D",
"B  c #621E1E",
"V  c #631E1E",
"C  c #651F1E",
"Z  c #671F1E",
"A  c #681F1F",
"S  c #6A1F1F",
"D  c #6A201F",
"F  c #6B201F",
"G  c #6C201F",
"H  c #6E2020",
"J  c #702020",
"K  c #712120",
"L  c #732120",
"P  c #762121",
"I  c #772221",
"U  c #792221",
"Y  c #7B2222",
"T  c #7C2222",
"R  c #832423",
"E  c #842423",
"W  c #852423",
"Q  c #862424",
"!  c #882424",
"~  c #8A2524",
"^  c #8B2524",
"/  c #8D2525",
"(  c #902625",
")  c #922626",
"_  c #952626",
"`  c #972727",
"'  c #982727",
"]  c #992727",
"[  c #9D2827",
"{  c #9E2828",
"}  c #9F2828",
"|  c #A02828",
" . c #A22928",
".. c #A32928",
"X. c #A42929",
"o. c #A52929",
"O. c #A62929",
"+. c #AA2A2A",
"@. c #AD2A2A",
"#. c #B22B2B",
"$. c #B52C2B",
"%. c #B62C2C",
"&. c #B72C2C",
"*. c #B92C2C",
"=. c #BB2D2D",
"-. c #C42E2E",
";. c #C82F2F",
":. c #CC2F2F",
">. c #CE3030",
",. c #CF3030",
"<. c #D03030",
"1. c #D23030",
"2. c #D33131",
"3. c #D43131",
"4. c #D63131",
"5. c #D73131",
"6. c #D83131",
"7. c #DA3232",
"8. c #DB3232",
"9. c #DC3232",
"0. c #DF3232",
"q. c #E13333",
"w. c #E23333",
"e. c None",
/* pixels */
"e.e.e.e.e.e.e.e.e.e.e.e.e.e.e.e.e.e.e.e.e.e.e.e.e.e.e.e.e.e.e.e.e.e.e.e.e.e.e.e.e.e.e.e.e.",
"e.e.e.e.e.e.e.e.e.e.e.e.e.e.e.e.e.e.e.e.e.e.e.e.e.e.e.e.e.e.e.e.e.e.e.e.e.e.e.e.e.e.e.e.e.",
"e.e.e.e.e.e.e.e.e.e.e.e.e.e.e.e.e.e.e.e.e.e.e.e.e.e.e.e.e.e.e.e.e.e.e.e.e.e.e.e.e.e.e.e.e.",
"e.e.e.e.e.e.e.e.e.e.e.e.e.e.e.e.e.e.e.e.e.e.e.e.e.e.e.e.e.e.e.e.e.e.e.e.e.e.e.e.e.e.e.e.e.",
"e.e.e.e.e.e.e.e.e.q 3 1 1 0 e.e.e.e.e.e.e.e.e.e.e.e.e.e.e.e.e.q 9 9 w e.e.e.e.e.e.e.e.e.e.",
"e.e.e.e.e.e.e.l % I [ +.o.R X u e.e.e.e.e.e.e.e.e.e.e.e.Z r o K Q ! A % d e.e.e.e.e.e.e.e.",
"e.e.e.e.e.Z & I >.w.w.w.w.w.9.` r j e.e.e.e.e.e.e.e.e.8 x  .8.w.w.w.q.3.( r j e.e.e.e.e.e.",
"e.e.e.e.N h o.w.w.w.w.w.w.w.w.w.8.Z 0 e.e.e.e.e.e.e.o ~ w.w.w.w.w.q.q.q.q.8.A 0 e.e.e.e.e.",
"e.e.e.e.r &.w.w.w.w.w.w.w.w.w.w.w.w.D 0 e.e.e.e.e.u o.w.w.w.w.w.w.w.w.w.w.w.w.A u e.e.e.e.",
"e.e.e.& ' w.w.w.w.w.w.w.w.w.w.w.w.w.w.Z x e.e.e.o [ w.w.w.w.w.w.w.w.w.w.w.w.w.w.N N e.e.e.",
"e.e.b G w.w.w.w.w.w.w.w.w.w.w.w.w.w.w.3.1 e.e.0 U w.w.w.w.w.w.w.w.w.w.w.w.w.w.w.%.o e.e.e.",
"e.e.& ;.w.w.w.w.w.w.w.w.w.w.w.w.w.w.w.w.~ d e.0 w.w.w.w.w.w.w.w.w.w.w.w.w.w.w.w.w.A n e.e.",
"e.e.d w.w.w.w.w.w.w.w.w.w.w.w.w.w.w.w.w.w.  + ` w.w.w.w.w.w.w.w.w.w.w.w.w.w.w.w.w.%.3 e.e.",
"e.l E w.w.w.w.w.w.w.w.w.w.w.w.w.w.w.w.w.w.9.8.w.w.w.w.w.w.w.w.w.w.w.w.w.w.w.w.w.w.w.  e.e.",
"e.0 +.w.w.w.w.w.w.w.w.w.w.w.w.w.w.w.w.w.w.w.w.w.w.w.w.w.w.w.w.w.w.w.w.w.w.w.w.w.w.w.T 0 e.",
"e.- -.w.w.w.w.w.w.w.w.w.w.w.w.w.w.w.w.w.w.w.w.w.w.w.w.w.w.w.w.w.w.w.w.w.w.w.w.w.w.w.' 5 e.",
"e.% 1.w.w.w.w.w.w.w.w.w.w.w.w.w.w.w.w.w.w.w.w.w.w.w.w.w.w.w.w.w.w.w.w.w.w.w.w.w.w.w.o.3 e.",
"e.o 9.w.w.w.w.w.w.w.w.w.w.w.w.w.w.w.w.w.w.w.w.w.w.w.w.w.w.w.w.w.w.w.w.w.w.w.w.w.w.w.@.; e.",
"e.+ 3.w.w.w.w.w.w.w.w.w.w.w.w.w.w.w.w.w.w.w.w.w.w.w.w.w.w.w.w.w.w.w.w.w.w.w.w.w.w.w.O.1 e.",
"e.1 =.w.w.w.w.w.w.w.w.w.w.w.w.w.w.w.w.w.w.w.w.w.w.w.w.w.w.w.w.w.w.w.w.w.w.w.w.w.w.w./ 5 e.",
"e.d ` w.w.w.w.w.w.w.w.w.w.w.w.w.w.w.w.w.w.w.w.w.w.w.w.w.w.w.w.w.w.w.w.w.w.w.w.w.w.w.b e.e.",
"e.A h w.w.w.w.w.w.w.w.w.w.w.w.w.w.w.w.w.w.w.w.w.w.w.w.w.w.w.w.w.w.w.w.w.w.w.w.w.w.} 8 e.e.",
"e.e.= [ w.w.w.w.w.w.w.w.w.w.w.w.w.w.w.w.w.w.w.w.w.w.w.w.w.w.w.w.w.w.w.w.w.w.w.w.w.u e.e.e.",
"e.e.e.d 3.w.w.w.w.w.w.w.w.w.w.w.w.w.w.w.w.w.w.w.w.w.w.w.w.w.w.w.w.w.w.w.w.w.w.w.H u e.e.e.",
"e.e.e.l Z w.w.w.w.w.w.w.w.w.w.w.w.w.w.w.w.w.w.w.w.w.w.w.w.w.w.w.w.w.w.w.w.w.w.U - e.e.e.e.",
"e.e.e.e.d Z 8.w.w.w.w.w.w.w.w.w.w.w.w.w.w.w.w.w.w.w.w.w.w.w.w.w.w.w.w.w.w.w.I ; e.e.e.e.e.",
"e.e.e.e.e.l n #.w.w.w.w.w.w.w.w.w.w.w.w.w.w.w.w.w.w.w.w.w.w.w.w.w.w.w.w.8.A 5 e.e.e.e.e.e.",
"e.e.e.e.e.e.N o Q w.w.w.w.w.w.w.w.w.w.w.w.w.w.w.w.w.w.w.w.w.w.w.w.w.w.[ u j e.e.e.e.e.e.e.",
"e.e.e.e.e.e.e.e.q N &.w.w.w.w.w.w.w.w.w.w.w.w.w.w.w.w.w.w.w.w.w.w.>.A 1 e.e.e.e.e.e.e.e.e.",
"e.e.e.e.e.e.e.e.e.N & I w.w.w.w.w.w.w.w.w.w.w.w.w.w.w.w.w.w.w.w./ 5 x e.e.e.e.e.e.e.e.e.e.",
"e.e.e.e.e.e.e.e.e.e.e.h t ' w.w.w.w.w.w.w.w.w.w.w.w.w.w.w.w.*.N q e.e.e.e.e.e.e.e.e.e.e.e.",
"e.e.e.e.e.e.e.e.e.e.e.e.e.8 A <.w.w.w.w.w.w.w.w.w.w.w.w.w.~ o N e.e.e.e.e.e.e.e.e.e.e.e.e.",
"e.e.e.e.e.e.e.e.e.e.e.e.e.e.b d  .w.w.w.w.w.w.w.w.w.w.w.Z 1 e.e.e.e.e.e.e.e.e.e.e.e.e.e.e.",
"e.e.e.e.e.e.e.e.e.e.e.e.e.e.e.e.+ E w.w.w.w.w.w.w.w.3.A d e.e.e.e.e.e.e.e.e.e.e.e.e.e.e.e.",
"e.e.e.e.e.e.e.e.e.e.e.e.e.e.e.e.e.; K q.w.w.w.w.w.;.A z e.e.e.e.e.e.e.e.e.e.e.e.e.e.e.e.e.",
"e.e.e.e.e.e.e.e.e.e.e.e.e.e.e.e.e.e.1 K w.w.w.w.<.Z b e.e.e.e.e.e.e.e.e.e.e.e.e.e.e.e.e.e.",
"e.e.e.e.e.e.e.e.e.e.e.e.e.e.e.e.e.e.e.; U q.q.q.A x e.e.e.e.e.e.e.e.e.e.e.e.e.e.e.e.e.e.e.",
"e.e.e.e.e.e.e.e.e.e.e.e.e.e.e.e.e.e.e.e.% ( q.Z h e.e.e.e.e.e.e.e.e.e.e.e.e.e.e.e.e.e.e.e.",
"e.e.e.e.e.e.e.e.e.e.e.e.e.e.e.e.e.e.e.e.e.6 U 6 e.e.e.e.e.e.e.e.e.e.e.e.e.e.e.e.e.e.e.e.e.",
"e.e.e.e.e.e.e.e.e.e.e.e.e.e.e.e.e.e.e.e.e.h % e.e.e.e.e.e.e.e.e.e.e.e.e.e.e.e.e.e.e.e.e.e.",
"e.e.e.e.e.e.e.e.e.e.e.e.e.e.e.e.e.e.e.e.e.e.N e.e.e.e.e.e.e.e.e.e.e.e.e.e.e.e.e.e.e.e.e.e.",
"e.e.e.e.e.e.e.e.e.e.e.e.e.e.e.e.e.e.e.e.e.e.e.e.e.e.e.e.e.e.e.e.e.e.e.e.e.e.e.e.e.e.e.e.e.",
"e.e.e.e.e.e.e.e.e.e.e.e.e.e.e.e.e.e.e.e.e.e.e.e.e.e.e.e.e.e.e.e.e.e.e.e.e.e.e.e.e.e.e.e.e.",
"e.e.e.e.e.e.e.e.e.e.e.e.e.e.e.e.e.e.e.e.e.e.e.e.e.e.e.e.e.e.e.e.e.e.e.e.e.e.e.e.e.e.e.e.e.",
"e.e.e.e.e.e.e.e.e.e.e.e.e.e.e.e.e.e.e.e.e.e.e.e.e.e.e.e.e.e.e.e.e.e.e.e.e.e.e.e.e.e.e.e.e."
};
